<svg width="24" height="25" viewBox="0 0 24 25" fill="none" xmlns="http://www.w3.org/2000/svg">
<g clip-path="url(#clip0_131_380)">
<path d="M23.9823 10.6817C23.9541 10.5447 23.8927 10.4167 23.8035 10.3088C23.7144 10.201 23.6002 10.1166 23.4709 10.0631L21.0586 9.06363L21.7642 8.26673C21.8548 8.16452 21.9196 8.04213 21.9533 7.90977C21.987 7.77741 21.9886 7.63891 21.9579 7.50582C21.9273 7.37272 21.8652 7.24888 21.777 7.14463C21.6888 7.04037 21.5769 6.95871 21.4507 6.90647L5.85141 0.445C5.22132 0.184649 4.51366 0.185014 3.88384 0.446016C3.25402 0.707018 2.75353 1.20732 2.49227 1.83705L0.196285 7.38024C-0.0639029 8.01044 -0.0635128 8.71811 0.19737 9.34802C0.458253 9.97792 0.958325 10.4786 1.58789 10.7403L9.31088 13.9393L7.41878 17.7726C7.34812 17.9158 7.23878 18.0364 7.10313 18.1208C6.96748 18.2051 6.81094 18.2498 6.65121 18.2498H5.14284V16.5354C5.1421 15.8536 4.87094 15.2 4.38887 14.7179C3.90679 14.2358 3.25318 13.9647 2.57142 13.9639H0.85714C0.744571 13.9639 0.633099 13.986 0.529092 14.0291C0.425086 14.0722 0.330584 14.1353 0.250985 14.2149C0.171387 14.2945 0.108251 14.389 0.0651864 14.493C0.0221214 14.597 -2.92505e-05 14.7085 2.8989e-08 14.8211V23.3928C-2.92505e-05 23.5054 0.0221214 23.6169 0.0651864 23.7209C0.108251 23.8249 0.171387 23.9194 0.250985 23.999C0.330584 24.0786 0.425086 24.1417 0.529092 24.1848C0.633099 24.2279 0.744571 24.25 0.85714 24.25H2.57142C3.25318 24.2493 3.90679 23.9781 4.38887 23.496C4.87094 23.0139 5.1421 22.3603 5.14284 21.6785V19.9641H6.65121C7.13037 19.9651 7.60019 19.8317 8.00727 19.5789C8.41434 19.3262 8.74233 18.9643 8.95394 18.5344L10.8976 14.5966L13.0542 15.4899C13.5486 15.6948 14.0945 15.7403 14.6159 15.6201C15.1373 15.4999 15.6082 15.22 15.963 14.8194L16.251 14.4941L18.968 15.6138C19.1266 15.679 19.301 15.6952 19.4689 15.6603C19.6368 15.6254 19.7903 15.5409 19.9097 15.4179L23.758 11.4518C23.8554 11.3514 23.9267 11.2288 23.9658 11.0946C24.0049 10.9604 24.0106 10.8186 23.9823 10.6817ZM3.42856 21.6785C3.42833 21.9057 3.33796 22.1236 3.17726 22.2843C3.01656 22.445 2.79868 22.5354 2.57142 22.5357H1.71428V15.6783H2.57142C2.79868 15.6785 3.01656 15.7689 3.17726 15.9296C3.33796 16.0903 3.42833 16.3082 3.42856 16.5354V21.6785ZM13.7101 13.9061L2.2441 9.15655C2.14005 9.11353 2.0455 9.05042 1.96585 8.97083C1.88621 8.89125 1.82303 8.79675 1.77992 8.69273C1.73682 8.58871 1.71463 8.47722 1.71464 8.36463C1.71464 8.25203 1.73684 8.14054 1.77995 8.03653L4.07598 2.49335C4.14122 2.3365 4.25144 2.20247 4.39273 2.10817C4.53403 2.01387 4.70009 1.96352 4.86996 1.96347C4.98188 1.96348 5.09269 1.98567 5.19599 2.02876L19.6841 8.02984L14.6798 13.6827C14.5612 13.8157 14.4042 13.9087 14.2305 13.9487C14.0568 13.9887 13.8749 13.9739 13.7101 13.9061ZM19.0839 13.8074L17.4539 13.1354L19.8567 10.4213L21.6487 11.1639L19.0839 13.8074Z" fill="white"/>
</g>
<defs>
<clipPath id="clip0_131_380">
<rect width="24" height="24" fill="white" transform="translate(0 0.25)"/>
</clipPath>
</defs>
</svg>
