<svg width="16" height="16" viewBox="0 0 16 16" fill="none" xmlns="http://www.w3.org/2000/svg">
<path d="M13.557 2.45897C13.535 1.09934 12.4221 0 11.0573 0H2.5C1.1215 0 0 1.1215 0 2.5V11.0417C0 12.4012 1.09069 13.5107 2.44303 13.541C2.46503 14.9007 3.57791 16 4.94272 16H13.5C14.8785 16 16 14.8785 16 13.5V4.95834C16 3.59884 14.9093 2.48931 13.557 2.45897ZM3.06772 12.2917H2.5C1.81075 12.2917 1.25 11.7309 1.25 11.0417V2.5C1.25 1.81075 1.81075 1.25 2.5 1.25H11.0573C11.7465 1.25 12.3073 1.81075 12.3073 2.5V11.0417C12.3073 11.7309 11.7465 12.2917 11.0573 12.2917H3.06772ZM14.75 13.5C14.75 14.1892 14.1892 14.75 13.5 14.75H4.94272C4.26741 14.75 3.71544 14.2117 3.69341 13.5417H11.0573C12.4358 13.5417 13.5573 12.4202 13.5573 11.0417V3.70963C14.2201 3.73963 14.75 4.28825 14.75 4.95831V13.5H14.75Z" fill="#9B51E0"/>
</svg>
