<svg width="16" height="16" viewBox="0 0 16 16" fill="none" xmlns="http://www.w3.org/2000/svg">
<path fill-rule="evenodd" clip-rule="evenodd" d="M8.00355 0C3.59506 0 5.82393e-06 3.58939 0 7.99787C-1.08553e-05 12.4064 3.59505 16 8.00355 16C12.412 16 16 12.4064 16 7.99787C16 3.58939 12.412 0 8.00355 0ZM8.00355 1.45416C11.6262 1.45416 14.5458 4.37527 14.5458 7.99787C14.5459 11.6205 11.6262 14.5458 8.00355 14.5458C4.38094 14.5458 1.45415 11.6205 1.45416 7.99787C1.45416 4.37527 4.38095 1.45416 8.00355 1.45416ZM7.99219 4.35253C7.8961 4.35346 7.80115 4.37343 7.71283 4.41127C7.62451 4.44912 7.54456 4.5041 7.47761 4.57303C7.41066 4.64196 7.35804 4.72347 7.32278 4.81286C7.28753 4.90225 7.27034 4.99774 7.27221 5.09381V7.27221H5.09381C5.06874 7.27091 5.04362 7.27091 5.01855 7.27221C4.82553 7.28219 4.64438 7.36844 4.51495 7.51199C4.38552 7.65553 4.31841 7.84461 4.32839 8.03763C4.33837 8.23065 4.42462 8.41181 4.56817 8.54123C4.71171 8.67066 4.90079 8.73777 5.09381 8.72779H7.27221V10.9062C7.27221 11.0992 7.34889 11.2843 7.48538 11.4208C7.62186 11.5573 7.80698 11.634 8 11.634C8.19302 11.634 8.37814 11.5573 8.51462 11.4208C8.65111 11.2843 8.72779 11.0992 8.72779 10.9062V8.72779H10.9062C11.0992 8.72779 11.2843 8.65111 11.4208 8.51462C11.5573 8.37814 11.634 8.19302 11.634 8C11.634 7.80698 11.5573 7.62186 11.4208 7.48538C11.2843 7.34889 11.0992 7.27221 10.9062 7.27221H8.72779V5.09381C8.72969 4.99643 8.712 4.89965 8.67578 4.80923C8.63956 4.71881 8.58554 4.63658 8.51692 4.56744C8.44831 4.4983 8.36651 4.44365 8.27637 4.40673C8.18623 4.36981 8.08959 4.35138 7.99219 4.35253Z" fill="#22AE68"/>
</svg>
