<svg width="16" height="16" viewBox="0 0 16 16" fill="none" xmlns="http://www.w3.org/2000/svg">
<g clip-path="url(#clip0_156_1491)">
<path d="M7.99996 10.6663C7.8633 10.6663 7.73263 10.6103 7.63863 10.5117L4.13863 6.84501C3.8353 6.52767 4.06063 5.99967 4.49996 5.99967H6.3333V2.16634C6.3333 1.70701 6.7073 1.33301 7.16663 1.33301H8.8333C9.29263 1.33301 9.66663 1.70701 9.66663 2.16634V5.99967H11.5C11.9393 5.99967 12.1646 6.52767 11.8613 6.84501L8.3613 10.5117C8.2673 10.6103 8.13663 10.6663 7.99996 10.6663Z" fill="#55595D"/>
<path d="M14.8333 14.6667H1.16667C0.523333 14.6667 0 14.1433 0 13.5V13.1667C0 12.5233 0.523333 12 1.16667 12H14.8333C15.4767 12 16 12.5233 16 13.1667V13.5C16 14.1433 15.4767 14.6667 14.8333 14.6667Z" fill="#55595D"/>
</g>
<defs>
<clipPath id="clip0_156_1491">
<rect width="16" height="16" fill="white"/>
</clipPath>
</defs>
</svg>
