<svg width="16" height="16" viewBox="0 0 16 16" fill="none" xmlns="http://www.w3.org/2000/svg">
<g id="Group">
<path id="Vector" d="M15.3488 0.539219L15.3294 0.521654C14.9595 0.185273 14.4801 0 13.9793 0C13.4179 0 12.879 0.23659 12.5005 0.649053L5.3445 8.44878C5.27928 8.51987 5.2298 8.60374 5.19922 8.69505L4.35778 11.2064C4.26049 11.4968 4.30932 11.8179 4.48837 12.0653C4.66884 12.3147 4.9596 12.4636 5.26619 12.4636C5.39881 12.4636 5.52848 12.4365 5.65142 12.3829L8.08771 11.3218C8.17629 11.2832 8.25575 11.2266 8.32093 11.1555L15.477 3.35583C16.2216 2.54425 16.1642 1.28082 15.3488 0.539219ZM5.96995 10.7425L6.4637 9.26885L6.50534 9.22345L7.44117 10.0744L7.39953 10.1198L5.96995 10.7425ZM14.4567 2.42795L8.37317 9.05867L7.43735 8.2077L13.5208 1.57693C13.6398 1.44724 13.8027 1.37579 13.9794 1.37579C14.1344 1.37579 14.2828 1.43321 14.3977 1.53768L14.417 1.55524C14.6696 1.78495 14.6874 2.17646 14.4567 2.42795Z" fill="#007DC0"/>
<path id="Vector_2" d="M13.9615 6.34671C13.5799 6.34671 13.2705 6.6547 13.2705 7.0346V12.8747C13.2705 13.8393 12.4823 14.6241 11.5134 14.6241H3.13908C2.17014 14.6241 1.3819 13.8393 1.3819 12.8747V4.60518C1.3819 3.64057 2.17018 2.85577 3.13908 2.85577H9.20042C9.58201 2.85577 9.89137 2.54778 9.89137 2.16788C9.89137 1.78797 9.58201 1.47998 9.20042 1.47998H3.13908C1.40816 1.47998 0 2.88196 0 4.60518V12.8747C0 14.5979 1.4082 15.9999 3.13908 15.9999H11.5133C13.2442 15.9999 14.6524 14.5979 14.6524 12.8747V7.0346C14.6524 6.6547 14.3431 6.34671 13.9615 6.34671Z" fill="#007DC0"/>
</g>
</svg>
