<svg width="19" height="16" viewBox="0 0 19 16" fill="none" xmlns="http://www.w3.org/2000/svg">
<path d="M15.2 8.8C14.9878 8.8 14.7843 8.88429 14.6343 9.03431C14.4843 9.18434 14.4 9.38783 14.4 9.6V12C14.4 12.6365 14.1471 13.247 13.6971 13.6971C13.247 14.1471 12.6365 14.4 12 14.4H4C3.36348 14.4 2.75303 14.1471 2.30294 13.6971C1.85286 13.247 1.6 12.6365 1.6 12V4C1.6 3.36348 1.85286 2.75303 2.30294 2.30294C2.75303 1.85286 3.36348 1.6 4 1.6H8C8.21217 1.6 8.41566 1.51571 8.56569 1.36569C8.71571 1.21566 8.8 1.01217 8.8 0.8C8.8 0.587827 8.71571 0.384344 8.56569 0.234315C8.41566 0.0842854 8.21217 0 8 0H4C2.93952 0.00127029 1.92285 0.423106 1.17298 1.17298C0.423106 1.92285 0.00127029 2.93952 0 4V12C0.00127029 13.0605 0.423106 14.0772 1.17298 14.827C1.92285 15.5769 2.93952 15.9987 4 16H12C13.0605 15.9987 14.0772 15.5769 14.827 14.827C15.5769 14.0772 15.9987 13.0605 16 12V9.6C16 9.38783 15.9157 9.18434 15.7657 9.03431C15.6157 8.88429 15.4122 8.8 15.2 8.8Z" fill="#55595D"/>
<path d="M18.6366 7.76158C18.6164 7.90218 18.5518 8.03265 18.4523 8.13399C18.3528 8.23532 18.2235 8.30221 18.0833 8.32492C18.048 8.33075 18.0123 8.33365 17.9766 8.33358C17.8527 8.33364 17.7313 8.29918 17.6259 8.23406C17.5205 8.16894 17.4353 8.07574 17.3799 7.96492C16.5526 6.30958 14.3513 6.21025 13.3099 6.27225V7.66692C13.3099 7.79875 13.2708 7.92762 13.1975 8.03722C13.1243 8.14683 13.0202 8.23226 12.8984 8.2827C12.7766 8.33315 12.6425 8.34635 12.5132 8.32064C12.3839 8.29493 12.2652 8.23146 12.1719 8.13825L8.8386 4.80492C8.77228 4.73864 8.72069 4.65911 8.6872 4.57154C8.6537 4.48397 8.63905 4.39032 8.64421 4.2967C8.64937 4.20308 8.67422 4.1116 8.71714 4.02824C8.76005 3.94488 8.82007 3.87151 8.89326 3.81292L12.2266 1.14625C12.3247 1.06774 12.4429 1.01853 12.5677 1.00429C12.6925 0.99006 12.8188 1.01138 12.9321 1.0658C13.0453 1.12021 13.1408 1.20551 13.2077 1.31187C13.2745 1.41822 13.31 1.5413 13.3099 1.66692V2.94558C15.1766 2.85825 16.6033 3.30225 17.5373 4.26492C17.9565 4.73742 18.2711 5.29318 18.4606 5.89577C18.65 6.49837 18.71 7.13419 18.6366 7.76158Z" fill="#55595D"/>
</svg>
