<svg width="24" height="25" viewBox="0 0 24 25" fill="none" xmlns="http://www.w3.org/2000/svg">
<g clip-path="url(#clip0_131_428)">
<path d="M4.77143 5.36538C4.77143 4.85585 5.19383 4.44231 5.71429 4.44231H15.7714C16.2919 4.44231 16.7143 4.85585 16.7143 5.36538C16.7143 5.87492 16.2919 6.28846 15.7714 6.28846H5.71429C5.19383 6.28846 4.77143 5.87492 4.77143 5.36538ZM6.97143 11.8269H5.71429C5.19383 11.8269 4.77143 12.2405 4.77143 12.75C4.77143 13.2595 5.19383 13.6731 5.71429 13.6731H6.97143C7.49189 13.6731 7.91429 13.2595 7.91429 12.75C7.91429 12.2405 7.49189 11.8269 6.97143 11.8269ZM5.71429 9.98077H10.7429C11.2633 9.98077 11.6857 9.56723 11.6857 9.05769C11.6857 8.54815 11.2633 8.13462 10.7429 8.13462H5.71429C5.19383 8.13462 4.77143 8.54815 4.77143 9.05769C4.77143 9.56723 5.19383 9.98077 5.71429 9.98077ZM18.2291 16.75H16.7143V15.1685C16.7143 14.6589 16.2919 14.2454 15.7714 14.2454C15.251 14.2454 14.8286 14.6589 14.8286 15.1685V17.6731C14.8286 18.1826 15.251 18.5962 15.7714 18.5962H18.2291C18.7496 18.5962 19.172 18.1826 19.172 17.6731C19.172 17.1635 18.7496 16.75 18.2291 16.75ZM23 17.6731C23 21.5746 19.7578 24.75 15.7714 24.75C14.2641 24.75 12.8637 24.2946 11.7046 23.5192H4.45714C2.55006 23.5192 1 22.0017 1 20.1346V4.13462C1 2.26754 2.55006 0.75 4.45714 0.75H17.0286C18.9357 0.75 20.4857 2.26754 20.4857 4.13462V12.3205C22.0219 13.6189 23 15.5352 23 17.6731ZM4.45714 21.6731H9.81383C9.01303 20.5346 8.54286 19.1574 8.54286 17.6731C8.54286 13.7715 11.785 10.5962 15.7714 10.5962C16.7746 10.5962 17.7313 10.798 18.6 11.1611V4.13462C18.6 3.28662 17.8947 2.59615 17.0286 2.59615H4.45714C3.59097 2.59615 2.88571 3.28662 2.88571 4.13462V20.1346C2.88571 20.9826 3.59097 21.6731 4.45714 21.6731ZM21.1143 17.6731C21.1143 14.7894 18.7182 12.4423 15.7714 12.4423C12.8247 12.4423 10.4286 14.7894 10.4286 17.6731C10.4286 20.5568 12.8247 22.9038 15.7714 22.9038C18.7182 22.9038 21.1143 20.5568 21.1143 17.6731Z" fill="white"/>
</g>
<defs>
<clipPath id="clip0_131_428">
<rect width="24" height="24" fill="white" transform="translate(0 0.75)"/>
</clipPath>
</defs>
</svg>
