<svg width="24" height="25" viewBox="0 0 24 25" fill="none" xmlns="http://www.w3.org/2000/svg">
<g clip-path="url(#clip0_188_1022)">
<path fill-rule="evenodd" clip-rule="evenodd" d="M2.8125 0.25H4.6875C5.20528 0.25 5.625 0.669719 5.625 1.1875C5.625 1.70528 5.20528 2.125 4.6875 2.125H2.8125C2.29556 2.125 1.875 2.54556 1.875 3.0625V4.9375C1.875 5.45528 1.45528 5.875 0.9375 5.875C0.419719 5.875 0 5.45528 0 4.9375V3.0625C0 1.51169 1.26169 0.25 2.8125 0.25ZM12 3.8125C11.4822 3.8125 11.0625 4.23222 11.0625 4.75V19.75C11.0625 20.2678 11.4822 20.6875 12 20.6875C12.5178 20.6875 12.9375 20.2678 12.9375 19.75V4.75C12.9375 4.23222 12.5178 3.8125 12 3.8125ZM5.4375 16V8.5C5.4375 7.98222 5.01778 7.5625 4.5 7.5625C3.98222 7.5625 3.5625 7.98222 3.5625 8.5V16C3.5625 16.5178 3.98222 16.9375 4.5 16.9375C5.01778 16.9375 5.4375 16.5178 5.4375 16ZM20.4375 16C20.4375 16.5178 20.0178 16.9375 19.5 16.9375C18.9822 16.9375 18.5625 16.5178 18.5625 16V8.5C18.5625 7.98222 18.9822 7.5625 19.5 7.5625C20.0178 7.5625 20.4375 7.98222 20.4375 8.5V16ZM8.25 9.4375C7.73222 9.4375 7.3125 9.85722 7.3125 10.375V14.125C7.3125 14.6428 7.73222 15.0625 8.25 15.0625C8.76778 15.0625 9.1875 14.6428 9.1875 14.125V10.375C9.1875 9.85722 8.76778 9.4375 8.25 9.4375ZM14.8125 10.375C14.8125 9.85722 15.2322 9.4375 15.75 9.4375C16.2678 9.4375 16.6875 9.85722 16.6875 10.375V14.125C16.6875 14.6428 16.2678 15.0625 15.75 15.0625C15.2322 15.0625 14.8125 14.6428 14.8125 14.125V10.375ZM4.6875 22.375H2.8125C2.29556 22.375 1.875 21.9544 1.875 21.4375V19.5625C1.875 19.0447 1.45528 18.625 0.9375 18.625C0.419719 18.625 0 19.0447 0 19.5625V21.4375C0 22.9883 1.26169 24.25 2.8125 24.25H4.6875C5.20528 24.25 5.625 23.8303 5.625 23.3125C5.625 22.7947 5.20528 22.375 4.6875 22.375ZM21.1875 0.25H19.3125C18.7947 0.25 18.375 0.669719 18.375 1.1875C18.375 1.70528 18.7947 2.125 19.3125 2.125H21.1875C21.7044 2.125 22.125 2.54556 22.125 3.0625V4.9375C22.125 5.45528 22.5447 5.875 23.0625 5.875C23.5803 5.875 24 5.45528 24 4.9375V3.0625C24 1.51169 22.7383 0.25 21.1875 0.25ZM22.125 19.5625C22.125 19.0447 22.5447 18.625 23.0625 18.625C23.5803 18.625 24 19.0447 24 19.5625V21.4375C24 22.9883 22.7383 24.25 21.1875 24.25H19.3125C18.7947 24.25 18.375 23.8303 18.375 23.3125C18.375 22.7947 18.7947 22.375 19.3125 22.375H21.1875C21.7044 22.375 22.125 21.9544 22.125 21.4375V19.5625Z" fill="white"/>
</g>
<defs>
<clipPath id="clip0_188_1022">
<rect width="24" height="24" fill="white" transform="translate(0 0.25)"/>
</clipPath>
</defs>
</svg>
