<svg width="16" height="16" viewBox="0 0 16 16" fill="none" xmlns="http://www.w3.org/2000/svg">
<g clip-path="url(#clip0_156_1488)">
<path d="M15.2 8.8C14.9878 8.8 14.7843 8.88429 14.6343 9.03431C14.4843 9.18434 14.4 9.38783 14.4 9.6V12C14.4 12.6365 14.1471 13.247 13.6971 13.6971C13.247 14.1471 12.6365 14.4 12 14.4H4C3.36348 14.4 2.75303 14.1471 2.30294 13.6971C1.85286 13.247 1.6 12.6365 1.6 12V4C1.6 3.36348 1.85286 2.75303 2.30294 2.30294C2.75303 1.85286 3.36348 1.6 4 1.6H8C8.21217 1.6 8.41566 1.51571 8.56569 1.36569C8.71571 1.21566 8.8 1.01217 8.8 0.8C8.8 0.587827 8.71571 0.384344 8.56569 0.234315C8.41566 0.0842854 8.21217 0 8 0H4C2.93952 0.00127029 1.92285 0.423106 1.17298 1.17298C0.423106 1.92285 0.00127029 2.93952 0 4V12C0.00127029 13.0605 0.423106 14.0772 1.17298 14.827C1.92285 15.5769 2.93952 15.9987 4 16H12C13.0605 15.9987 14.0772 15.5769 14.827 14.827C15.5769 14.0772 15.9987 13.0605 16 12V9.6C16 9.38783 15.9157 9.18434 15.7657 9.03431C15.6157 8.88429 15.4122 8.8 15.2 8.8Z" fill="#55595D"/>
<path d="M4.67346 8.76158C4.69365 8.90218 4.75822 9.03265 4.85775 9.13399C4.95729 9.23532 5.08658 9.30221 5.22679 9.32492C5.26205 9.33075 5.29773 9.33365 5.33346 9.33358C5.45735 9.33364 5.5788 9.29918 5.68419 9.23406C5.78959 9.16894 5.87475 9.07574 5.93013 8.96492C6.75746 7.30958 8.95879 7.21025 10.0001 7.27225V8.66692C10.0002 8.79875 10.0393 8.92762 10.1125 9.03722C10.1858 9.14683 10.2899 9.23226 10.4117 9.2827C10.5335 9.33315 10.6675 9.34635 10.7968 9.32064C10.9261 9.29493 11.0449 9.23146 11.1381 9.13825L14.4715 5.80492C14.5378 5.73864 14.5894 5.65911 14.6229 5.57154C14.6564 5.48397 14.671 5.39032 14.6658 5.2967C14.6607 5.20308 14.6358 5.1116 14.5929 5.02824C14.55 4.94488 14.49 4.87151 14.4168 4.81292L11.0835 2.14625C10.9854 2.06774 10.8671 2.01853 10.7423 2.00429C10.6175 1.99006 10.4912 2.01138 10.378 2.0658C10.2648 2.12021 10.1692 2.20551 10.1024 2.31187C10.0355 2.41822 10.0001 2.5413 10.0001 2.66692V3.94558C8.13346 3.85825 6.70679 4.30225 5.77279 5.26492C5.35357 5.73742 5.03891 6.29318 4.84946 6.89577C4.66001 7.49837 4.60003 8.13419 4.67346 8.76158Z" fill="#55595D"/>
</g>
<defs>
<clipPath id="clip0_156_1488">
<rect width="16" height="16" fill="white"/>
</clipPath>
</defs>
</svg>
