<svg width="24" height="25" viewBox="0 0 24 25" fill="none" xmlns="http://www.w3.org/2000/svg">
<path d="M9.09 9.25C9.3251 8.58167 9.78915 8.01811 10.4 7.65913C11.0108 7.30016 11.7289 7.16894 12.4272 7.28871C13.1255 7.40849 13.7588 7.77152 14.2151 8.31353C14.6713 8.85553 14.9211 9.54152 14.92 10.25C14.92 12.25 11.92 13.25 11.92 13.25M12 17.25H12.01M22 12.25C22 17.7728 17.5228 22.25 12 22.25C6.47715 22.25 2 17.7728 2 12.25C2 6.72715 6.47715 2.25 12 2.25C17.5228 2.25 22 6.72715 22 12.25Z" stroke="white" stroke-width="2" stroke-linecap="round" stroke-linejoin="round"/>
</svg>
