<svg width="25" height="25" viewBox="0 0 25 25" fill="none" xmlns="http://www.w3.org/2000/svg">
<g clip-path="url(#clip0_131_435)">
<path fill-rule="evenodd" clip-rule="evenodd" d="M7.34546 2.99422C7.47896 1.73282 8.54622 0.75 9.84302 0.75H15.4244C16.7212 0.75 17.7885 1.73282 17.922 2.99422C18.7738 3.01157 19.5103 3.05563 20.1391 3.17115C20.9853 3.32657 21.7054 3.62266 22.2914 4.20862C22.9633 4.88053 23.2523 5.72653 23.3874 6.7313C23.5174 7.69908 23.5174 8.92958 23.5174 10.4562V17.2764C23.5174 18.803 23.5174 20.0335 23.3874 21.0013C23.2523 22.0061 22.9633 22.852 22.2914 23.524C21.6194 24.1959 20.7735 24.4849 19.7688 24.62C18.8009 24.75 17.5705 24.75 16.0438 24.75H9.22363C7.69702 24.75 6.46653 24.75 5.49874 24.62C4.49397 24.4849 3.64798 24.1959 2.97607 23.524C2.30415 22.852 2.01516 22.0061 1.88007 21.0013C1.74996 20.0335 1.74998 18.803 1.75 17.2764V10.4562C1.74998 8.92958 1.74996 7.69908 1.88007 6.7313C2.01516 5.72653 2.30415 4.88053 2.97607 4.20862C3.56203 3.62266 4.28211 3.32657 5.12825 3.17115C5.75714 3.05563 6.49365 3.01157 7.34546 2.99422ZM7.34809 4.66911C6.54641 4.68622 5.92863 4.72657 5.43076 4.81801C4.79804 4.93424 4.43182 5.12086 4.16006 5.39262C3.85112 5.70156 3.64968 6.13532 3.53956 6.95441C3.42619 7.79759 3.42442 8.91511 3.42442 10.5174V17.2151C3.42442 18.8174 3.42619 19.9349 3.53956 20.7782C3.64968 21.5973 3.85112 22.031 4.16006 22.34C4.469 22.6489 4.90276 22.8503 5.72185 22.9605C6.56504 23.0738 7.68255 23.0756 9.28488 23.0756H15.9826C17.5849 23.0756 18.7024 23.0738 19.5456 22.9605C20.3647 22.8503 20.7984 22.6489 21.1074 22.34C21.4164 22.031 21.6178 21.5973 21.7279 20.7782C21.8412 19.9349 21.843 18.8174 21.843 17.2151V10.5174C21.843 8.91511 21.8412 7.79759 21.7279 6.95441C21.6178 6.13531 21.4164 5.70156 21.1074 5.39262C20.8356 5.12086 20.4694 4.93424 19.8367 4.81801C19.3388 4.72657 18.721 4.68622 17.9193 4.66911C17.7751 5.91906 16.7131 6.88953 15.4244 6.88953H9.84302C8.55438 6.88953 7.49241 5.91906 7.34809 4.66911ZM9.84302 2.42442C9.38065 2.42442 9.00581 2.79925 9.00581 3.26163V4.37791C9.00581 4.84028 9.38065 5.21512 9.84302 5.21512H15.4244C15.8868 5.21512 16.2616 4.84028 16.2616 4.37791V3.26163C16.2616 2.79925 15.8868 2.42442 15.4244 2.42442H9.84302ZM6.21512 11.0756C6.21512 10.6132 6.58995 10.2384 7.05233 10.2384H7.61047C8.07284 10.2384 8.44767 10.6132 8.44767 11.0756C8.44767 11.5379 8.07284 11.9128 7.61047 11.9128H7.05233C6.58995 11.9128 6.21512 11.5379 6.21512 11.0756ZM10.1221 11.0756C10.1221 10.6132 10.4969 10.2384 10.9593 10.2384H18.2151C18.6775 10.2384 19.0523 10.6132 19.0523 11.0756C19.0523 11.5379 18.6775 11.9128 18.2151 11.9128H10.9593C10.4969 11.9128 10.1221 11.5379 10.1221 11.0756ZM6.21512 14.9826C6.21512 14.5202 6.58995 14.1453 7.05233 14.1453H7.61047C8.07284 14.1453 8.44767 14.5202 8.44767 14.9826C8.44767 15.4449 8.07284 15.8198 7.61047 15.8198H7.05233C6.58995 15.8198 6.21512 15.4449 6.21512 14.9826ZM10.1221 14.9826C10.1221 14.5202 10.4969 14.1453 10.9593 14.1453H18.2151C18.6775 14.1453 19.0523 14.5202 19.0523 14.9826C19.0523 15.4449 18.6775 15.8198 18.2151 15.8198H10.9593C10.4969 15.8198 10.1221 15.4449 10.1221 14.9826ZM6.21512 18.8895C6.21512 18.4272 6.58995 18.0523 7.05233 18.0523H7.61047C8.07284 18.0523 8.44767 18.4272 8.44767 18.8895C8.44767 19.3519 8.07284 19.7267 7.61047 19.7267H7.05233C6.58995 19.7267 6.21512 19.3519 6.21512 18.8895ZM10.1221 18.8895C10.1221 18.4272 10.4969 18.0523 10.9593 18.0523H18.2151C18.6775 18.0523 19.0523 18.4272 19.0523 18.8895C19.0523 19.3519 18.6775 19.7267 18.2151 19.7267H10.9593C10.4969 19.7267 10.1221 19.3519 10.1221 18.8895Z" fill="white"/>
</g>
<defs>
<clipPath id="clip0_131_435">
<rect width="24" height="24" fill="white" transform="translate(0.75 0.75)"/>
</clipPath>
</defs>
</svg>
