<svg width="20" height="21" viewBox="0 0 20 21" fill="none" xmlns="http://www.w3.org/2000/svg">
<path d="M9.99984 11.3337C10.4601 11.3337 10.8332 10.9606 10.8332 10.5003C10.8332 10.0401 10.4601 9.66699 9.99984 9.66699C9.5396 9.66699 9.1665 10.0401 9.1665 10.5003C9.1665 10.9606 9.5396 11.3337 9.99984 11.3337Z" fill="#808080" stroke="#808080" stroke-width="2" stroke-linecap="round" stroke-linejoin="round"/>
<path d="M9.99984 5.49967C10.4601 5.49967 10.8332 5.12658 10.8332 4.66634C10.8332 4.2061 10.4601 3.83301 9.99984 3.83301C9.5396 3.83301 9.1665 4.2061 9.1665 4.66634C9.1665 5.12658 9.5396 5.49967 9.99984 5.49967Z" fill="#808080" stroke="#808080" stroke-width="2" stroke-linecap="round" stroke-linejoin="round"/>
<path d="M9.99984 17.1667C10.4601 17.1667 10.8332 16.7936 10.8332 16.3333C10.8332 15.8731 10.4601 15.5 9.99984 15.5C9.5396 15.5 9.1665 15.8731 9.1665 16.3333C9.1665 16.7936 9.5396 17.1667 9.99984 17.1667Z" fill="#808080" stroke="#808080" stroke-width="2" stroke-linecap="round" stroke-linejoin="round"/>
</svg>
