<svg width="21" height="21" viewBox="0 0 21 21" fill="none" xmlns="http://www.w3.org/2000/svg">
<g id="layer1">
<path id="circle2017" d="M9.93952 0.931305C4.9808 0.931305 0.941467 4.97063 0.941467 9.92937C0.941467 14.8881 4.9808 18.9353 9.93952 18.9353C12.0575 18.9353 14.0055 18.193 15.545 16.9606L19.293 20.7067C19.4822 20.888 19.7348 20.988 19.9968 20.9854C20.2588 20.9827 20.5093 20.8775 20.6947 20.6924C20.8801 20.5073 20.9856 20.2569 20.9887 19.9949C20.9917 19.7329 20.892 19.4802 20.711 19.2908L16.963 15.5427C18.1964 14.0008 18.9395 12.0498 18.9395 9.92937C18.9395 4.97063 14.8982 0.931305 9.93952 0.931305ZM9.93952 2.93134C13.8174 2.93134 16.9376 6.05153 16.9376 9.92937C16.9376 13.8072 13.8174 16.9352 9.93952 16.9352C6.06168 16.9352 2.94147 13.8072 2.94147 9.92937C2.94147 6.05153 6.06168 2.93134 9.93952 2.93134Z" fill="#55595D"/>
</g>
</svg>
