<svg width="24" height="25" viewBox="0 0 24 25" fill="none" xmlns="http://www.w3.org/2000/svg">
<path d="M10.9395 2.68164C5.98074 2.68164 1.94141 6.72096 1.94141 11.6797C1.94141 16.6384 5.98074 20.6856 10.9395 20.6856C13.0575 20.6856 15.0054 19.9433 16.5449 18.711L20.293 22.457C20.4821 22.6383 20.7347 22.7384 20.9967 22.7357C21.2587 22.733 21.5093 22.6279 21.6947 22.4427C21.8801 22.2576 21.9856 22.0072 21.9886 21.7453C21.9917 21.4833 21.892 21.2305 21.7109 21.0411L17.9629 17.2931C19.1963 15.7512 19.9395 13.8002 19.9395 11.6797C19.9395 6.72096 15.8982 2.68164 10.9395 2.68164ZM10.9395 4.68167C14.8173 4.68167 17.9375 7.80187 17.9375 11.6797C17.9375 15.5575 14.8173 18.6856 10.9395 18.6856C7.06162 18.6856 3.94141 15.5575 3.94141 11.6797C3.94141 7.80187 7.06162 4.68167 10.9395 4.68167Z" fill="white"/>
</svg>
