<svg width="24" height="25" viewBox="0 0 24 25" fill="none" xmlns="http://www.w3.org/2000/svg">
<g clip-path="url(#clip0_131_383)">
<path d="M8.97064 0.75C6.86077 0.755328 4.95335 1.12829 3.52013 1.7783C2.80085 2.10331 2.19879 2.49225 1.74592 2.97709C1.29837 3.45661 1 4.04802 1 4.69803L1.00533 9.98337C1.00281 10.001 1.00103 10.0188 1 10.0366C1 10.1006 1.00001 10.1645 1.00533 10.2231L1.01599 15.29C1.00823 15.3215 1.00289 15.3536 1 15.3859C1 15.4712 1.00533 15.5617 1.01599 15.6417L1.02132 20.9909C1.02189 21.0267 1.02545 21.0623 1.03197 21.0975C1.23976 22.3123 2.33199 23.1647 3.7439 23.7562C5.16114 24.3422 6.98864 24.6832 8.98129 24.6832C11.917 24.6832 14.4744 24.0012 15.9076 22.7492C16.0302 22.7545 16.1527 22.7598 16.2753 22.7598C16.7015 22.7598 17.1278 22.7225 17.5433 22.6479C17.6544 22.6281 17.7583 22.5792 17.8444 22.5062C17.9305 22.4332 17.9957 22.3387 18.0335 22.2324L18.3745 21.2733C18.5556 21.2094 18.7315 21.1348 18.9073 21.0549L19.8237 21.4918C19.9262 21.541 20.04 21.562 20.1533 21.5527C20.2666 21.5433 20.3754 21.5039 20.4684 21.4385C21.161 20.9483 21.7684 20.3463 22.2533 19.6483C22.3177 19.5559 22.3565 19.4481 22.3659 19.3358C22.3752 19.2235 22.3548 19.1108 22.3065 19.0089L21.8696 18.0872C21.9549 17.9167 22.0242 17.7356 22.0934 17.5597L23.0525 17.2187C23.1588 17.181 23.2533 17.1158 23.3263 17.0297C23.3993 16.9436 23.4482 16.8397 23.468 16.7286C23.5373 16.3077 23.5746 15.8868 23.5746 15.4605C23.5746 15.0343 23.5373 14.6134 23.468 14.1978C23.4491 14.0857 23.4005 13.9807 23.3275 13.8936C23.2545 13.8065 23.1595 13.7405 23.0525 13.7023L22.0934 13.3613C22.0295 13.1855 21.9549 13.0043 21.875 12.8338L22.3119 11.9121C22.3601 11.8103 22.3806 11.6975 22.3712 11.5852C22.3619 11.473 22.323 11.3652 22.2586 11.2727C21.7684 10.5748 21.161 9.97271 20.4684 9.48254C20.3754 9.41714 20.2666 9.37773 20.1533 9.36836C20.04 9.35899 19.9262 9.38002 19.8237 9.42926L18.9073 9.86615C18.7315 9.78623 18.5556 9.71164 18.3745 9.6477L18.0335 8.68867C17.9957 8.5823 17.9305 8.48782 17.8444 8.41483C17.7583 8.34184 17.6544 8.29294 17.5433 8.2731C17.3462 8.2358 17.1437 8.20916 16.9413 8.19318C16.9466 6.98906 16.9519 5.81157 16.9573 4.69803C16.9573 4.04802 16.6589 3.45129 16.206 2.97177C15.7585 2.49225 15.1511 2.09799 14.4318 1.77298C12.9879 1.12297 11.0805 0.75 8.97064 0.75ZM8.97064 2.02871C10.926 2.02871 12.6896 2.39102 13.9043 2.9398C14.5117 3.21685 14.9806 3.53653 15.2736 3.84555C15.5667 4.1599 15.6785 4.43163 15.6785 4.69803C15.6785 4.96443 15.5667 5.23615 15.2736 5.5505C14.9806 5.85952 14.5117 6.1792 13.9043 6.45626C12.6896 7.00504 10.926 7.36734 8.97064 7.36201C7.02061 7.36201 5.25704 6.9997 4.04759 6.45092C3.44021 6.17387 2.97135 5.85419 2.67831 5.54517C2.3906 5.23615 2.27871 4.96443 2.27871 4.69803C2.27871 4.43163 2.3906 4.15991 2.67831 3.85089C2.97135 3.53654 3.44021 3.21686 4.04759 2.94513C5.25704 2.39635 7.02061 2.03404 8.97064 2.02871ZM2.28404 6.89848C2.64102 7.17021 3.0566 7.40464 3.52013 7.61775C4.95335 8.26244 6.86077 8.64072 8.97064 8.64072C11.0805 8.64605 12.9879 8.26777 14.4318 7.61775C14.8953 7.40996 15.3109 7.1702 15.6679 6.9038C15.6679 7.33004 15.6679 7.74562 15.6626 8.18784C15.4494 8.20383 15.231 8.23047 15.0125 8.2731C14.9014 8.29294 14.7976 8.34184 14.7115 8.41483C14.6254 8.48782 14.5601 8.5823 14.5224 8.68867L14.1814 9.64238C14.0002 9.71164 13.8244 9.7809 13.6486 9.86615L12.7322 9.42926C12.6297 9.38002 12.5159 9.35899 12.4026 9.36836C12.2893 9.37773 12.1805 9.41714 12.0875 9.48254C11.3949 9.97271 10.7875 10.5748 10.3026 11.2727C10.2382 11.3652 10.1994 11.473 10.19 11.5852C10.1806 11.6975 10.2011 11.8103 10.2494 11.9121L10.601 12.6527C10.5449 12.6415 10.4876 12.6379 10.4305 12.642C9.96696 12.6847 9.4768 12.706 8.97064 12.706C7.02061 12.706 5.25704 12.3383 4.04759 11.7896C3.44021 11.5178 2.97135 11.1981 2.67831 10.8891C2.43322 10.6227 2.31601 10.3883 2.28404 10.1592V6.89848ZM16.27 9.43992H16.2753C16.5044 9.43992 16.7335 9.4559 16.9626 9.48254L17.2716 10.3563C17.3053 10.4514 17.361 10.5372 17.4341 10.6066C17.5073 10.6761 17.5958 10.7272 17.6925 10.7559C18.0069 10.8518 18.3159 10.9797 18.6036 11.1342C18.6923 11.1825 18.7911 11.2092 18.892 11.212C18.993 11.2147 19.0932 11.1936 19.1843 11.1502L20.0208 10.7506C20.3778 11.0383 20.7028 11.358 20.9852 11.715L20.5856 12.5568C20.5431 12.6473 20.5224 12.7465 20.5252 12.8464C20.528 12.9463 20.5541 13.0442 20.6016 13.1322C20.7614 13.4252 20.884 13.7289 20.9799 14.0486C21.0086 14.1453 21.0597 14.2338 21.1292 14.307C21.1986 14.3802 21.2844 14.4358 21.3795 14.4695L22.2533 14.7785C22.2799 15.0023 22.2959 15.2314 22.2959 15.4605C22.2959 15.6896 22.2799 15.9187 22.2533 16.1425L21.3795 16.4568C21.285 16.49 21.1996 16.5449 21.1302 16.617C21.0608 16.6892 21.0093 16.7767 20.9799 16.8724C20.884 17.1868 20.7561 17.4958 20.6016 17.7835C20.5533 17.8722 20.5266 17.971 20.5238 18.072C20.5211 18.1729 20.5422 18.2731 20.5856 18.3643L20.9852 19.2007C20.7028 19.563 20.3778 19.8827 20.0208 20.1704L19.179 19.7708C19.0889 19.7275 18.99 19.7059 18.89 19.7078C18.7901 19.7096 18.692 19.7349 18.6036 19.7815C18.3106 19.9413 18.0069 20.0692 17.6925 20.1651C17.5964 20.1933 17.5082 20.2436 17.4351 20.3121C17.362 20.3806 17.306 20.4653 17.2716 20.5594L16.9626 21.4332C16.7335 21.4598 16.5044 21.4811 16.2753 21.4811C16.0515 21.4811 15.8224 21.4598 15.5933 21.4385L15.2843 20.5594C15.2499 20.4653 15.1939 20.3806 15.1208 20.3121C15.0477 20.2436 14.9595 20.1933 14.8634 20.1651C14.549 20.0692 14.2453 19.9413 13.9523 19.7815C13.8639 19.7349 13.7658 19.7096 13.6658 19.7078C13.5659 19.7059 13.4669 19.7275 13.3769 19.7708L12.535 20.1704C12.1781 19.8827 11.8531 19.5631 11.5707 19.2061L11.9703 18.3643C12.0128 18.2738 12.0335 18.1746 12.0307 18.0746C12.0279 17.9747 12.0018 17.8768 11.9543 17.7888C11.7998 17.4958 11.6719 17.1921 11.576 16.8724C11.5473 16.7757 11.4962 16.6872 11.4267 16.614C11.3573 16.5409 11.2715 16.4852 11.1764 16.4515L10.3026 16.1425C10.276 15.9134 10.26 15.6896 10.26 15.4605C10.26 15.2314 10.276 15.0023 10.3026 14.7785L11.1764 14.4695C11.2715 14.4358 11.3573 14.3802 11.4267 14.307C11.4962 14.2338 11.5473 14.1453 11.576 14.0486C11.6719 13.7289 11.7945 13.4252 11.9543 13.1322C12.0018 13.0442 12.0279 12.9463 12.0307 12.8464C12.0335 12.7465 12.0128 12.6473 11.9703 12.5568L11.5707 11.715C11.8531 11.358 12.1781 11.033 12.535 10.7506L13.3715 11.1502C13.4627 11.1936 13.5629 11.2147 13.6638 11.212C13.7648 11.2092 13.8636 11.1825 13.9523 11.1342C14.24 10.9797 14.549 10.8518 14.8687 10.7559C14.9644 10.7265 15.0519 10.675 15.1241 10.6056C15.1963 10.5362 15.2511 10.4508 15.2843 10.3563L15.5986 9.48254C15.8224 9.4559 16.0462 9.43992 16.27 9.43992ZM2.28936 12.2478C2.64634 12.5141 3.0566 12.7486 3.52013 12.9564C4.95868 13.6064 6.86077 13.9793 8.97064 13.9847H9.16777C9.1286 14.0504 9.10153 14.1225 9.08785 14.1978C9.01326 14.6134 8.98129 15.0343 8.98129 15.4605C8.98129 15.8814 9.01326 16.3077 9.08785 16.7232C9.10683 16.8353 9.15533 16.9403 9.22838 17.0274C9.30142 17.1145 9.39638 17.1805 9.50344 17.2187L10.4625 17.5597C10.5211 17.7249 10.5903 17.8847 10.6649 18.0446C10.5712 18.0032 10.4689 17.9849 10.3666 17.9913C9.91902 18.0339 9.45549 18.0552 8.97064 18.0552C7.02061 18.0552 5.26237 17.6876 4.04759 17.1388C3.44021 16.8671 2.97135 16.5421 2.67831 16.2331C2.44921 15.988 2.33199 15.7695 2.2947 15.5511L2.28936 12.2478ZM2.2947 17.597C2.65167 17.8634 3.06192 18.0979 3.52013 18.3056C4.95335 18.9557 6.86077 19.3286 8.97064 19.3339C9.38622 19.3339 9.79648 19.318 10.1961 19.2913C10.1954 19.4182 10.2325 19.5425 10.3026 19.6483C10.7875 20.3463 11.3949 20.9483 12.0928 21.4385C12.1852 21.5029 12.2931 21.5418 12.4053 21.5511C12.5176 21.5605 12.6304 21.54 12.7322 21.4918L13.6486 21.0549C13.8244 21.1348 14.0002 21.2094 14.1814 21.2733L14.5011 22.1737C13.3076 22.8611 11.2776 23.4045 8.98129 23.4045C7.13782 23.4045 5.44885 23.0795 4.23941 22.5733C3.05127 22.0778 2.40659 21.4225 2.30003 20.911L2.2947 17.597Z" fill="white"/>
<path d="M16.2703 11.4434C14.0645 11.4434 12.2583 13.2442 12.2583 15.4553C12.2583 17.6611 14.0645 19.4619 16.2703 19.4619C18.476 19.4619 20.2822 17.6611 20.2822 15.4553C20.2822 13.2442 18.476 11.4434 16.2703 11.4434ZM16.2703 12.7221C17.7834 12.7221 19.0035 13.9368 19.0035 15.4553C19.0035 16.9684 17.7834 18.1832 16.2703 18.1832C14.7518 18.1832 13.537 16.9684 13.537 15.4553C13.537 13.9368 14.7518 12.7221 16.2703 12.7221Z" fill="white"/>
</g>
<defs>
<clipPath id="clip0_131_383">
<rect width="24" height="24" fill="white" transform="translate(0 0.75)"/>
</clipPath>
</defs>
</svg>
