<svg width="24" height="25" viewBox="0 0 24 25" fill="none" xmlns="http://www.w3.org/2000/svg">
<g clip-path="url(#clip0_131_335)">
<path d="M22.9461 14.6576L21.9476 13.8357C21.2637 13.2727 21.2649 12.2262 21.9477 11.6643L22.9461 10.8424C23.6565 10.2575 23.8383 9.25444 23.3782 8.45733L21.4067 5.04267C20.9465 4.24561 19.9867 3.90155 19.1251 4.22433L17.9141 4.67803C17.0846 4.98872 16.179 4.4647 16.0336 3.59236L15.821 2.3167C15.6697 1.40892 14.8919 0.75 13.9716 0.75H10.0287C9.10828 0.75 8.33044 1.40892 8.17917 2.31675L7.96655 3.59236C7.82091 4.46625 6.91406 4.9882 6.08611 4.67808L4.87509 4.22433C4.01339 3.90155 3.05376 4.24566 2.5935 5.04267L0.622077 8.45728C0.161905 9.2543 0.343593 10.2574 1.05417 10.8424L2.05256 11.6643C2.73656 12.2273 2.7352 13.2737 2.05256 13.8356L1.05412 14.6575C0.343593 15.2425 0.161858 16.2456 0.62203 17.0426L2.5935 20.4573C3.05372 21.2543 4.01316 21.5984 4.87509 21.2756L6.08606 20.8219C6.9157 20.5111 7.82114 21.0355 7.9665 21.9076L8.17912 23.1832C8.33044 24.0911 9.10828 24.75 10.0286 24.75H13.9715C14.8919 24.75 15.6697 24.0911 15.821 23.1833L16.0335 21.9077C16.1791 21.034 17.0859 20.5117 17.914 20.822L19.1251 21.2757C19.987 21.5985 20.9465 21.2544 21.4067 20.4573L23.3782 17.0426C23.8383 16.2456 23.6565 15.2425 22.9461 14.6576ZM19.7829 19.5198L18.5719 19.0661C16.636 18.3409 14.5233 19.5644 14.1841 21.5994L13.9716 22.875H10.0287L9.81605 21.5994C9.47625 19.5605 7.36045 18.3423 5.42831 19.0661L4.2173 19.5198L2.24587 16.1052L3.24426 15.2833C4.84031 13.9694 4.83698 11.5279 3.24426 10.2167L2.24587 9.39483L4.21734 5.98017L5.42831 6.43388C7.36425 7.15903 9.47691 5.93559 9.81605 3.90061L10.0286 2.625H13.9715L14.1841 3.90061C14.5239 5.93977 16.6398 7.15753 18.5718 6.43388L19.7828 5.98017L21.7547 9.39436C21.7547 9.39436 21.7546 9.3945 21.7542 9.39478L20.7559 10.2167C19.1599 11.5305 19.1631 13.972 20.7558 15.2832L21.7543 16.1051L19.7829 19.5198ZM12.0001 8.12498C9.44986 8.12498 7.37508 10.1998 7.37508 12.75C7.37508 15.3002 9.44986 17.375 12.0001 17.375C14.5503 17.375 16.6251 15.3002 16.6251 12.75C16.6251 10.1998 14.5503 8.12498 12.0001 8.12498ZM12.0001 15.5C10.4837 15.5 9.25008 14.2664 9.25008 12.75C9.25008 11.2336 10.4837 9.99998 12.0001 9.99998C13.5165 9.99998 14.7501 11.2336 14.7501 12.75C14.7501 14.2664 13.5165 15.5 12.0001 15.5Z" fill="white"/>
</g>
<defs>
<clipPath id="clip0_131_335">
<rect width="24" height="24" fill="white" transform="translate(0 0.75)"/>
</clipPath>
</defs>
</svg>
