<svg width="50" height="51" viewBox="0 0 50 51" fill="none" xmlns="http://www.w3.org/2000/svg">
<g clip-path="url(#clip0_130_1914)">
<path d="M47.8092 19.9759L30.2743 2.44104C28.8746 1.04364 26.9775 0.258789 24.9996 0.258789C23.0217 0.258789 21.1247 1.04364 19.7249 2.44104L2.19007 19.9759C0.792665 21.3757 0.0078125 23.2727 0.0078125 25.2506C0.0078125 27.2285 0.792665 29.1256 2.19007 30.5253L19.7249 48.0602C21.1247 49.4576 23.0217 50.2424 24.9996 50.2424C26.9775 50.2424 28.8746 49.4576 30.2743 48.0602L47.8092 30.5253C49.2066 29.1256 49.9915 27.2285 49.9915 25.2506C49.9915 23.2727 49.2066 21.3757 47.8092 19.9759ZM24.9996 37.3126C22.6141 37.3123 20.2821 36.6046 18.2987 35.2791C16.3153 33.9535 14.7696 32.0696 13.8568 29.8655C12.9441 27.6615 12.7054 25.2363 13.171 22.8966C13.6366 20.5569 14.7855 18.4077 16.4725 16.721C18.1594 15.0342 20.3086 13.8856 22.6484 13.4203C24.9882 12.955 27.4134 13.1939 29.6173 14.1069C31.8213 15.0199 33.705 16.5659 35.0303 18.5495C36.3557 20.533 37.063 22.865 37.063 25.2506C37.0593 28.4487 35.787 31.5148 33.5255 33.7761C31.2639 36.0373 28.1978 37.3092 24.9996 37.3126Z" fill="#78C6E7"/>
<path d="M25.0017 18.2539C23.6179 18.2539 22.2651 18.6643 21.1145 19.4331C19.9639 20.2019 19.0671 21.2947 18.5375 22.5732C18.0079 23.8517 17.8694 25.2585 18.1393 26.6158C18.4093 27.973 19.0757 29.2197 20.0542 30.1982C21.0327 31.1768 22.2795 31.8432 23.6367 32.1131C24.994 32.3831 26.4008 32.2445 27.6793 31.715C28.9578 31.1854 30.0506 30.2886 30.8194 29.138C31.5882 27.9874 31.9986 26.6346 31.9986 25.2507C31.9967 23.3956 31.2589 21.6171 29.9471 20.3053C28.6354 18.9936 26.8568 18.2558 25.0017 18.2539Z" fill="#78C6E7"/>
</g>
<defs>
<clipPath id="clip0_130_1914">
<rect width="50" height="50" fill="white" transform="translate(0 0.25)"/>
</clipPath>
</defs>
</svg>
