<svg width="16" height="16" viewBox="0 0 16 16" fill="none" xmlns="http://www.w3.org/2000/svg">
<g id="fi_2355330" clip-path="url(#clip0_2369_12703)">
<g id="Group">
<g id="Group_2">
<path id="Vector" d="M9.14203 10.1725C8.98828 10.3262 8.79828 10.4436 8.59237 10.5122L6.60359 11.1751C6.46006 11.223 6.31037 11.2473 6.15894 11.2473C5.78328 11.2473 5.43012 11.101 5.16453 10.8354C4.78544 10.4562 4.65531 9.90484 4.82484 9.39631L5.48778 7.40763C5.55638 7.20166 5.67388 7.01153 5.82747 6.85794L10.1229 2.5625H1.71875C0.771031 2.5625 0 3.33353 0 4.28125V14.2812C0 15.229 0.771031 16 1.71875 16H11.7188C12.6665 16 13.4375 15.229 13.4375 14.2812V5.87706L9.14203 10.1725Z" fill="#323232"/>
</g>
<path id="Vector_2" d="M6.49041 7.52076C6.43895 7.57223 6.4002 7.63495 6.3772 7.70398L5.71426 9.6927C5.6581 9.86113 5.70195 10.0468 5.82748 10.1724C5.95304 10.2979 6.13873 10.3418 6.30716 10.2856L8.29591 9.62269C8.36498 9.5997 8.42766 9.56095 8.47913 9.50948L14.3349 3.65376L12.3462 1.66504L6.49041 7.52076Z" fill="#323232"/>
<path id="Vector_3" d="M14.8873 0.22882C14.5822 -0.0762734 14.0875 -0.0762734 13.7824 0.22882L13.009 1.00223L14.9978 2.99098L15.7712 2.21757C16.0763 1.91248 16.0763 1.41782 15.7712 1.11273L14.8873 0.22882Z" fill="#323232"/>
</g>
</g>
<defs>
<clipPath id="clip0_2369_12703">
<rect width="16" height="16" fill="white"/>
</clipPath>
</defs>
</svg>
