<svg width="16" height="16" viewBox="0 0 16 16" fill="none" xmlns="http://www.w3.org/2000/svg">
<path d="M15.1724 7.17175H15.1717C15.063 7.17184 14.9554 7.19333 14.855 7.23501C14.7546 7.27668 14.6634 7.33771 14.5866 7.41462C14.5099 7.49153 14.449 7.58281 14.4075 7.68325C14.366 7.78368 14.3446 7.89131 14.3447 7.99998C14.3437 9.16012 14.0246 10.2978 13.4222 11.2893C12.8198 12.2808 11.9571 13.0883 10.9279 13.6239C9.89865 14.1595 8.74227 14.4028 7.58445 14.3273C6.42662 14.2518 5.31164 13.8604 4.36071 13.1956C1.49509 11.1893 0.796136 7.22599 2.80269 4.3607C4.80924 1.49541 8.77313 0.796478 11.6387 2.80284C12.0723 3.10558 12.4663 3.46129 12.8116 3.86171H10.4826C10.2631 3.86171 10.0526 3.94889 9.89736 4.10408C9.74215 4.25927 9.65496 4.46975 9.65496 4.68922C9.65496 4.90869 9.74215 5.11917 9.89736 5.27436C10.0526 5.42955 10.2631 5.51673 10.4826 5.51673H14.3448C14.5643 5.51673 14.7748 5.42955 14.93 5.27436C15.0852 5.11917 15.1724 4.90869 15.1724 4.68922V0.827509C15.1724 0.60804 15.0852 0.39756 14.93 0.242372C14.7748 0.0871838 14.5643 0 14.3448 0C14.1253 0 13.9148 0.0871838 13.7596 0.242372C13.6044 0.39756 13.5172 0.60804 13.5172 0.827509V2.20555C13.2267 1.93003 12.9162 1.67648 12.5882 1.447C11.7276 0.844521 10.7568 0.417414 9.73116 0.19007C8.70553 -0.0372742 7.64515 -0.0604039 6.61057 0.122001C5.576 0.304407 4.58748 0.688775 3.70147 1.25316C2.81546 1.81755 2.0493 2.5509 1.44674 3.41134C0.229821 5.14908 -0.246857 7.29901 0.121574 9.38817C0.490005 11.4773 1.67337 13.3346 3.41133 14.5513C4.74942 15.4937 6.34605 15.9997 7.98276 16C8.45417 15.9998 8.92466 15.9584 9.38888 15.8764C11.2411 15.5497 12.9191 14.5809 14.1281 13.1403C15.3371 11.6996 15.9999 9.87917 16 7.99853C15.9998 7.7792 15.9125 7.56891 15.7574 7.41388C15.6022 7.25885 15.3918 7.17176 15.1724 7.17175Z" fill="#22AE68"/>
</svg>
