<svg width="16" height="16" viewBox="0 0 16 16" fill="none" xmlns="http://www.w3.org/2000/svg">
<path d="M9.05033 3.2998H1.75055C0.787746 3.2998 0 4.08755 0 5.05035V10.9497C0 11.9125 0.787746 12.7002 1.75055 12.7002H9.05033C10.0131 12.7002 10.8009 11.9125 10.8009 10.9497V5.05035C10.8009 4.07005 10.0131 3.2998 9.05033 3.2998Z" fill="white"/>
<path d="M14.7042 4.26257C14.5992 4.28008 14.4942 4.33259 14.4066 4.38511L11.6758 5.9606V10.0219L14.4241 11.5974C14.9318 11.895 15.562 11.7199 15.8596 11.2122C15.9471 11.0547 15.9996 10.8796 15.9996 10.6871V5.27789C15.9996 4.63019 15.3869 4.10502 14.7042 4.26257Z" fill="white"/>
</svg>
