<svg width="16" height="16" viewBox="0 0 16 16" fill="none" xmlns="http://www.w3.org/2000/svg">
<path d="M6.54545 3.36C6.54545 1.84 5.67273 0.48 4.36364 0V2.96H2.18182V0C0.872727 0.48 0 1.84 0 3.36C0 4.88 0.872727 6.24 2.18182 6.72V15.52C2.18182 15.84 2.32727 16 2.54545 16H4C4.21818 16 4.36364 15.84 4.36364 15.6V6.8C5.67273 6.32 6.54545 4.96 6.54545 3.36ZM10.9091 4.8C8.07273 4.88 5.81818 7.36 5.81818 10.4C5.81818 13.52 8.07273 16 10.9091 16C13.7455 16 16 13.52 16 10.4C16 7.28 13.7455 4.8 10.9091 4.8ZM10.9091 14.4C8.87273 14.4 7.27273 12.64 7.27273 10.4C7.27273 8.16 8.87273 6.4 10.9091 6.4C12.9455 6.4 14.5455 8.16 14.5455 10.4C14.5455 12.64 12.9455 14.4 10.9091 14.4ZM10.1818 7.2V11.2L12.8 12.96L13.3818 12L11.2727 10.64V7.2H10.1818Z" fill="#FF8C00"/>
</svg>
