<svg width="20" height="20" viewBox="0 0 20 20" fill="none" xmlns="http://www.w3.org/2000/svg">
<g clip-path="url(#clip0_173_806)">
<path d="M10 0C4.48566 0 0 4.48566 0 10C0 15.5143 4.48566 20 10 20C15.5143 20 20 15.5136 20 10C20 4.48645 15.5143 0 10 0ZM10 18.4508C5.34082 18.4508 1.54918 14.66 1.54918 10C1.54918 5.34004 5.34082 1.54918 10 1.54918C14.6592 1.54918 18.4508 5.34004 18.4508 10C18.4508 14.66 14.66 18.4508 10 18.4508Z" fill="white"/>
<path d="M13.8731 9.15617H10.7747V6.05781C10.7747 5.63023 10.4285 5.2832 10.0001 5.2832C9.57176 5.2832 9.22551 5.63023 9.22551 6.05781V9.15617H6.12715C5.69879 9.15617 5.35254 9.5032 5.35254 9.93078C5.35254 10.3584 5.69879 10.7054 6.12715 10.7054H9.22551V13.8038C9.22551 14.2313 9.57176 14.5784 10.0001 14.5784C10.4285 14.5784 10.7747 14.2313 10.7747 13.8038V10.7054H13.8731C14.3014 10.7054 14.6477 10.3584 14.6477 9.93078C14.6477 9.5032 14.3014 9.15617 13.8731 9.15617Z" fill="white"/>
</g>
<defs>
<clipPath id="clip0_173_806">
<rect width="20" height="20" fill="white"/>
</clipPath>
</defs>
</svg>
