<svg width="60" height="60" viewBox="0 0 60 60" fill="none" xmlns="http://www.w3.org/2000/svg">
<g id="bin (1) 1">
<rect width="60" height="60" rx="30" fill="#E53935"/>
<path id="Vector" d="M41.1972 21.8645H18.8028C18.6763 21.8645 18.5558 21.9169 18.4688 22.009C18.3812 22.1018 18.3357 22.2257 18.3423 22.3529L19.519 45.1883C19.5711 46.2041 20.4039 47 21.4159 47H38.584C39.5961 47 40.4289 46.2041 40.4809 45.1883L41.6576 22.3529C41.6642 22.2257 41.6187 22.1018 41.5311 22.009C41.4442 21.9169 41.3237 21.8645 41.1972 21.8645ZM22.6896 26.4681C22.6811 26.1573 22.7937 25.8611 23.0072 25.6344C23.2207 25.4078 23.5086 25.2779 23.8176 25.2687C24.4606 25.2554 24.9943 25.7629 25.0128 26.4045L25.4405 42.4342C25.4497 42.7444 25.337 43.0412 25.1228 43.2686C24.9094 43.4946 24.6208 43.6245 24.3111 43.6337H24.2769C23.9797 43.6337 23.6983 43.5204 23.4803 43.3124C23.2557 43.0977 23.1265 42.8081 23.1179 42.4979L22.6896 26.4681ZM28.8384 42.4481V26.4163C28.8384 25.7715 29.3596 25.2473 30 25.2473C30.6404 25.2473 31.1616 25.7715 31.1616 26.4163V42.4481C31.1616 43.0935 30.6404 43.6184 30 43.6184C29.3596 43.6184 28.8384 43.0936 28.8384 42.4481ZM36.8821 42.4965C36.8735 42.808 36.7443 43.0976 36.5197 43.3123C36.3017 43.5203 36.0203 43.6336 35.7231 43.6336H35.6868C35.3779 43.6244 35.0899 43.4945 34.8771 43.2679C34.6629 43.0406 34.5502 42.7444 34.5594 42.4329L34.9871 26.4058C35.0056 25.7637 35.5353 25.2527 36.1744 25.2687H36.1823C36.4913 25.2779 36.7792 25.4078 36.9927 25.6344C37.2062 25.8611 37.3188 26.1573 37.3103 26.4681L36.8821 42.4965ZM43.5 18.2921V19.522H16.5V18.2921C16.5 17.6135 17.0488 17.0615 17.7235 17.0615H26.6047C26.8399 17.0615 27.0376 16.8833 27.0633 16.648C27.2274 15.1385 28.4898 14 30 14C31.5102 14 32.7726 15.1385 32.9367 16.648C32.9624 16.8832 33.16 17.0615 33.3953 17.0615H42.2765C42.9512 17.0615 43.5 17.6135 43.5 18.2921Z" fill="white"/>
</g>
</svg>
