<svg width="24" height="24" viewBox="0 0 24 24" fill="none" xmlns="http://www.w3.org/2000/svg">
<path d="M23.6934 13.8426L22.2195 12.836L22.6288 12.509C22.9913 12.2194 22.9788 11.6621 22.6016 11.3897L9.08152 1.62588C8.47425 1.18727 7.63106 1.30127 7.16194 1.8852L2.71861 7.41579C2.2133 8.0449 2.34084 8.97185 2.99766 9.44093L6.37547 11.8531L5.01938 13.7798C4.79494 14.0987 4.87308 14.5395 5.19323 14.762L5.67661 15.0977C4.88789 15.8588 3.83016 16.2894 2.72536 16.2894H1.40625V14.7659C1.40625 14.3776 1.09144 14.0628 0.703125 14.0628C0.314813 14.0628 0 14.3776 0 14.7659V21.9378C0 22.3261 0.314813 22.6409 0.703125 22.6409C1.09144 22.6409 1.40625 22.3261 1.40625 21.9378V20.5081H2.35931C4.88316 20.5081 7.35066 19.4467 9.10327 17.4776L9.80653 17.9661C10.1275 18.189 10.5689 18.1072 10.7888 17.7844L12.0626 15.9144L14.9588 17.9827C15.2145 18.1653 15.5606 18.1563 15.8063 17.9599L16.8557 17.1214L19.5843 19.0854C19.8874 19.3035 20.3079 19.2466 20.5423 18.9562L23.8441 14.8649C24.1015 14.5458 24.0323 14.0741 23.6934 13.8426ZM2.35931 19.1018H1.40625V17.6956H2.72531C4.28888 17.6956 5.78147 17.0473 6.84825 15.9114L7.93838 16.6685C6.50817 18.2033 4.47286 19.1018 2.35931 19.1018ZM10.0259 16.4063L6.57652 14.0106L7.51988 12.6703L10.9179 15.097L10.0259 16.4063ZM15.3436 16.5295L3.81488 8.29652L8.2582 2.76593L21.0281 11.988L15.3436 16.5295ZM19.8657 17.5552L17.9966 16.2099L21.0704 13.7541L22.2714 14.5744L19.8657 17.5552Z" fill="#007DC0"/>
<path d="M17.625 12C18.0133 12 18.3281 11.6852 18.3281 11.2969C18.3281 10.9085 18.0133 10.5938 17.625 10.5938C17.2367 10.5938 16.9219 10.9085 16.9219 11.2969C16.9219 11.6852 17.2367 12 17.625 12Z" fill="#808080"/>
</svg>
