<svg width="24" height="24" viewBox="0 0 24 24" fill="none" xmlns="http://www.w3.org/2000/svg">
<g id="fi_10265447">
<g id="Group">
<path id="Vector" d="M20.1858 5.20288C20.1858 3.92574 19.5344 2.7943 18.5487 2.13428C17.9572 1.73145 17.2458 1.5 16.4829 1.5H15.5658V3.7543C15.5658 4.22572 15.1886 4.61145 14.7086 4.61145C14.2372 4.61145 13.8515 4.22572 13.8515 3.7543V1.5H6.33433V3.7543C6.33433 4.22572 5.9486 4.61145 5.47718 4.61145C4.99718 4.61145 4.62003 4.22572 4.62003 3.7543V1.5H3.70288C2.68287 1.5 1.75714 1.91147 1.08859 2.58859C0.411414 3.25714 0 4.18287 0 5.20288V5.76863H20.1858V5.20288Z" fill="#55595D"/>
<path id="Vector_2" d="M3.70288 20.2977H11.4086C10.7572 19.1748 10.38 17.8634 10.38 16.4663C10.38 12.232 13.8172 8.79481 18.0429 8.79481C18.7886 8.79481 19.5087 8.89766 20.1858 9.09479V7.4834H0V16.6034C0 18.6434 1.66287 20.2977 3.70288 20.2977Z" fill="#55595D"/>
<path id="Vector_3" d="M18.0428 10.5083C14.76 10.5083 12.0942 13.1826 12.0942 16.4655C12.0942 19.7484 14.76 22.4141 18.0428 22.4141C21.3257 22.4141 24 19.7484 24 16.4655C24 13.1826 21.3257 10.5083 18.0428 10.5083ZM19.7314 17.3226H18.0428C17.5714 17.3226 17.1857 16.9369 17.1857 16.4655V14.6998C17.1857 14.2283 17.5714 13.8426 18.0428 13.8426C18.5228 13.8426 18.9 14.2283 18.9 14.6998V15.6083H19.7314C20.2029 15.6083 20.5886 15.9855 20.5886 16.4655C20.5886 16.9369 20.2029 17.3226 19.7314 17.3226Z" fill="#55595D"/>
</g>
</g>
</svg>
