<svg width="20" height="20" viewBox="0 0 20 20" fill="none" xmlns="http://www.w3.org/2000/svg">
<path d="M19.9853 8.69308C19.9617 8.5789 19.9105 8.47222 19.8363 8.38236C19.762 8.2925 19.6668 8.2222 19.5591 8.17758L17.5489 7.34469L18.1368 6.68061C18.2123 6.59543 18.2663 6.49345 18.2944 6.38315C18.3225 6.27284 18.3238 6.15743 18.2983 6.04651C18.2727 5.9356 18.221 5.8324 18.1475 5.74552C18.074 5.65864 17.9807 5.59059 17.8756 5.54705L4.87617 0.1625C4.3511 -0.0544596 3.76139 -0.0541552 3.23654 0.163346C2.71169 0.380848 2.29461 0.797765 2.07689 1.32254L0.163571 5.94187C-0.0532524 6.46703 -0.0529273 7.05676 0.164475 7.58168C0.381877 8.1066 0.798604 8.52386 1.32324 8.74191L7.75907 11.4077L6.18232 14.6021C6.12343 14.7215 6.03232 14.822 5.91928 14.8923C5.80624 14.9626 5.67578 14.9998 5.54268 14.9998H4.2857V13.5712C4.28508 13.003 4.05912 12.4583 3.65739 12.0566C3.25566 11.6548 2.71098 11.4289 2.14285 11.4283H0.714284C0.620476 11.4282 0.527582 11.4467 0.44091 11.4826C0.354238 11.5185 0.275487 11.5711 0.209154 11.6374C0.142822 11.7038 0.0902095 11.7825 0.054322 11.8692C0.0184345 11.9559 -2.43754e-05 12.0488 2.41575e-08 12.1426V19.2857C-2.43754e-05 19.3795 0.0184345 19.4724 0.054322 19.5591C0.0902095 19.6457 0.142822 19.7245 0.209154 19.7908C0.275487 19.8572 0.354238 19.9098 0.44091 19.9457C0.527582 19.9816 0.620476 20 0.714284 20H2.14285C2.71098 19.9994 3.25566 19.7734 3.65739 19.3717C4.05912 18.9699 4.28508 18.4252 4.2857 17.8571V16.4284H5.54268C5.94197 16.4293 6.33349 16.3181 6.67272 16.1074C7.01195 15.8968 7.28527 15.5952 7.46161 15.237L9.08135 11.9555L10.8785 12.6999C11.2905 12.8706 11.7454 12.9086 12.1799 12.8084C12.6144 12.7083 13.0069 12.475 13.3025 12.1412L13.5425 11.8701L15.8067 12.8032C15.9388 12.8575 16.0842 12.871 16.2241 12.8419C16.364 12.8128 16.4919 12.7425 16.5914 12.6399L19.7984 9.33481C19.8795 9.25119 19.9389 9.14901 19.9715 9.03716C20.0041 8.92531 20.0088 8.80718 19.9853 8.69308ZM2.85713 17.8571C2.85694 18.0465 2.78163 18.228 2.64772 18.3619C2.5138 18.4959 2.33223 18.5712 2.14285 18.5714H1.42857V12.8569H2.14285C2.33223 12.8571 2.5138 12.9324 2.64772 13.0663C2.78163 13.2002 2.85694 13.3818 2.85713 13.5712V17.8571ZM11.4251 11.3801L1.87008 7.42212C1.78337 7.38627 1.70458 7.33368 1.63821 7.26736C1.57184 7.20104 1.51919 7.12229 1.48327 7.03561C1.44735 6.94893 1.42886 6.85602 1.42887 6.76219C1.42887 6.66836 1.44737 6.57545 1.4833 6.48878L3.39665 1.86946C3.45102 1.73875 3.54286 1.62706 3.66061 1.54848C3.77836 1.46989 3.91674 1.42793 4.0583 1.42789C4.15157 1.4279 4.24391 1.44639 4.32999 1.4823L16.4034 6.4832L12.2331 11.1939C12.1343 11.3048 12.0035 11.3822 11.8587 11.4156C11.714 11.4489 11.5625 11.4365 11.4251 11.3801ZM15.9033 11.2978L14.5449 10.7378L16.5472 8.4761L18.0405 9.09489L15.9033 11.2978Z" fill="#007DC0"/>
</svg>
