<svg width="60" height="60" viewBox="0 0 60 60" fill="none" xmlns="http://www.w3.org/2000/svg">
<g id="multiply 1" clip-path="url(#clip0_952_5090)">
<path id="Vector" d="M30 59.9802C46.5685 59.9802 60 46.5575 60 29.9998C60 13.4422 46.5685 0.0195312 30 0.0195312C13.4315 0.0195312 0 13.4422 0 29.9998C0 46.5575 13.4315 59.9802 30 59.9802Z" fill="#E42727"/>
<g id="Group">
<path id="Vector_2" d="M29.5001 13.5322C20.6813 13.5322 13.5322 20.6813 13.5322 29.5001C13.5322 38.3189 20.6813 45.4679 29.5001 45.4679C38.3189 45.4679 45.4679 38.3189 45.4679 29.5001C45.4679 20.6813 38.3189 13.5322 29.5001 13.5322ZM17.5069 29.5001C17.5069 22.8764 22.8764 17.5069 29.5001 17.5069C32.0952 17.5069 34.4978 18.3314 36.4604 19.7324L19.7324 36.4605C18.3314 34.4978 17.5069 32.0953 17.5069 29.5001ZM29.5001 41.4933C26.9065 41.4933 24.5053 40.6699 22.5434 39.2705L39.2704 22.5434C40.6699 24.5054 41.4933 26.9066 41.4933 29.5001C41.4933 36.1238 36.1238 41.4933 29.5001 41.4933Z" fill="white"/>
<path id="Vector (Stroke)" fill-rule="evenodd" clip-rule="evenodd" d="M13 29.5C13 20.3873 20.3873 13 29.5 13C38.6127 13 46 20.3873 46 29.5C46 38.6127 38.6127 46 29.5 46C20.3873 46 13 38.6127 13 29.5ZM29.5 14.0643C20.9751 14.0643 14.0643 20.9751 14.0643 29.5C14.0643 38.0249 20.9751 44.9357 29.5 44.9357C38.0249 44.9357 44.9357 38.0249 44.9357 29.5C44.9357 20.9751 38.0249 14.0643 29.5 14.0643ZM29.5 18.039C23.1703 18.039 18.039 23.1702 18.039 29.5C18.039 31.7543 18.6894 33.8553 19.8128 35.6273L35.6273 19.8128C33.8552 18.6894 31.7542 18.039 29.5 18.039ZM16.9746 29.5C16.9746 22.5824 22.5825 16.9746 29.5 16.9746C32.2097 16.9746 34.7197 17.8359 36.7695 19.2992L37.2809 19.6643L19.6643 37.281L19.2992 36.7696C17.8359 34.7197 16.9746 32.2097 16.9746 29.5ZM39.3385 21.7226L39.7036 22.2343C41.1653 24.2835 42.0254 26.7921 42.0254 29.5001C42.0254 36.4176 36.4176 42.0254 29.5 42.0254C26.792 42.0254 24.2834 41.1653 22.2343 39.7036L21.7225 39.3386L39.3385 21.7226ZM23.3765 39.1897C25.1478 40.3116 27.2474 40.9611 29.5 40.9611C35.8298 40.9611 40.9611 35.8298 40.961 29.5001C40.961 27.2475 40.3116 25.1478 39.1897 23.3766L23.3765 39.1897Z" fill="white"/>
</g>
</g>
<defs>
<clipPath id="clip0_952_5090">
<rect width="60" height="60" fill="white"/>
</clipPath>
</defs>
</svg>
