<svg width="16" height="16" viewBox="0 0 16 16" fill="none" xmlns="http://www.w3.org/2000/svg">
<g id="fi_4347434" clip-path="url(#clip0_497_8502)">
<g id="Group">
<path id="Vector" d="M7.9865 16.0001C6.93439 16.0021 5.8923 15.7961 4.92006 15.394C3.94783 14.9919 3.06465 14.4017 2.32124 13.6572C-0.803044 10.5329 -0.803044 5.44971 2.32124 2.32544C3.06353 1.57898 3.94652 0.987154 4.91908 0.584227C5.89161 0.181296 6.93442 -0.0247367 7.98715 -0.0219447C10.1275 -0.0219447 12.1396 0.811368 13.6524 2.32544C15.1658 3.83887 15.9998 5.85098 15.9998 7.99133C15.9998 10.1317 15.1664 12.1438 13.6524 13.6572C12.9089 14.4017 12.0255 14.9919 11.0532 15.394C10.0809 15.7961 9.03868 16.0021 7.9865 16.0001ZM7.98715 1.26008C7.10282 1.25757 6.2268 1.43055 5.40981 1.76901C4.59282 2.10747 3.8511 2.60467 3.22763 3.23181C1.95651 4.50296 1.25652 6.19328 1.25652 7.99133C1.25652 9.78937 1.95651 11.4791 3.22763 12.7508C5.85192 15.3751 10.1223 15.3758 12.746 12.7508C14.0171 11.4797 14.7178 9.78937 14.7178 7.99133C14.7178 6.19328 14.0178 4.50358 12.746 3.23181C12.1225 2.60486 11.3809 2.10778 10.5641 1.76933C9.74718 1.43088 8.87134 1.25779 7.98715 1.26008Z" fill="#AFAFAF"/>
<path id="Vector_2" d="M5.26703 11.3508C5.14014 11.351 5.016 11.3136 4.91042 11.2432C4.80484 11.1728 4.72253 11.0727 4.67399 10.9554C4.62541 10.8382 4.61281 10.7092 4.63768 10.5847C4.66259 10.4603 4.72391 10.3461 4.81384 10.2566L10.2528 4.81759C10.3123 4.75808 10.383 4.71088 10.4607 4.67864C10.5385 4.64644 10.6218 4.62988 10.706 4.62988C10.7902 4.62988 10.8735 4.64644 10.9513 4.67864C11.029 4.71088 11.0997 4.75808 11.1592 4.81759C11.2187 4.8771 11.2659 4.94775 11.2981 5.02552C11.3303 5.10329 11.3469 5.18662 11.3469 5.27078C11.3469 5.35494 11.3303 5.4383 11.2981 5.51607C11.2659 5.5938 11.2187 5.66446 11.1592 5.72397L5.72022 11.163C5.66085 11.2227 5.59024 11.27 5.51243 11.3023C5.43466 11.3345 5.35123 11.351 5.26703 11.3508Z" fill="#AFAFAF"/>
<path id="Vector_3" d="M10.7064 11.3508C10.6222 11.3509 10.5388 11.3343 10.461 11.3021C10.3832 11.2699 10.3126 11.2226 10.2532 11.163L4.81417 5.72397C4.75467 5.66446 4.70747 5.5938 4.67526 5.51607C4.64306 5.4383 4.62646 5.35494 4.62646 5.27078C4.62646 5.18662 4.64306 5.10329 4.67526 5.02552C4.70747 4.94775 4.75467 4.8771 4.81417 4.81759C4.87372 4.75808 4.94437 4.71088 5.02211 4.67864C5.09988 4.64644 5.18324 4.62988 5.2674 4.62988C5.35156 4.62988 5.43488 4.64644 5.51265 4.67864C5.59042 4.71088 5.66108 4.75808 5.72058 4.81759L11.1596 10.2566C11.2495 10.3461 11.3108 10.4603 11.3357 10.5847C11.3606 10.7092 11.348 10.8382 11.2994 10.9554C11.2508 11.0727 11.1686 11.1728 11.063 11.2432C10.9574 11.3136 10.8333 11.351 10.7064 11.3508Z" fill="#AFAFAF"/>
</g>
</g>
<defs>
<clipPath id="clip0_497_8502">
<rect width="16" height="16" fill="white"/>
</clipPath>
</defs>
</svg>
