<svg width="24" height="24" viewBox="0 0 24 24" fill="none" xmlns="http://www.w3.org/2000/svg">
<path d="M6 9.74997C6 9.33597 6.33525 8.99997 6.75 8.99997H11.25C11.6647 8.99997 12 9.33597 12 9.74997C12 10.164 11.6647 10.5 11.25 10.5H6.75C6.33525 10.5 6 10.164 6 9.74997ZM11.25 12H6.75C6.33525 12 6 12.336 6 12.75C6 13.164 6.33525 13.5 6.75 13.5H11.25C11.6647 13.5 12 13.164 12 12.75C12 12.336 11.6647 12 11.25 12ZM11.25 15H6.75C6.33525 15 6 15.336 6 15.75C6 16.164 6.33525 16.5 6.75 16.5H11.25C11.6647 16.5 12 16.164 12 15.75C12 15.336 11.6647 15 11.25 15ZM22.5 21.75C22.5 22.164 22.1647 22.5 21.75 22.5H2.25C1.83525 22.5 1.5 22.164 1.5 21.75C1.5 21.336 1.83525 21 2.25 21H3V7.21347C3 6.64122 3.318 6.12747 3.82875 5.87172L12.8287 1.37172C13.2982 1.13772 13.8427 1.16172 14.2882 1.43697C14.7337 1.71222 14.9993 2.18922 14.9993 2.71347V8.24997H19.4993C20.3265 8.24997 20.9993 8.92272 20.9993 9.74997V21H21.7493C22.164 21 22.5 21.336 22.5 21.75ZM15 9.74997V21H19.5V9.74997H15ZM4.5 21H13.5V2.71347L4.5 7.21347V21Z" fill="#007DC0"/>
</svg>
