<svg width="20" height="20" viewBox="0 0 20 20" fill="none" xmlns="http://www.w3.org/2000/svg">
<g id="fi_9070501">
<path id="Vector" d="M4.54338 18.3333H12.1231C13.5802 18.3333 14.775 17.2402 14.9618 15.8333H15.4565C17.0426 15.8333 18.3333 14.5427 18.3333 12.9566V4.54342C18.3333 2.95734 17.0426 1.66667 15.4565 1.66667H7.87671C6.29063 1.66667 4.99996 2.95734 4.99996 4.54342V5.00001H4.54338C2.95729 5.00001 1.66663 6.29067 1.66663 7.87676V15.4565C1.66663 17.0427 2.95729 18.3333 4.54338 18.3333ZM6.66663 4.54342C6.66663 3.87617 7.20946 3.33334 7.87671 3.33334H15.4565C16.1238 3.33334 16.6666 3.87617 16.6666 4.54342V12.9565C16.6666 13.6238 16.1238 14.1667 15.4565 14.1667H15V7.87676C15 6.29067 13.7093 5.00001 12.1232 5.00001H6.66663V4.54342ZM3.33329 7.87676C3.33329 7.20951 3.87613 6.66667 4.54338 6.66667H12.1231C12.7905 6.66667 13.3333 7.20951 13.3333 7.87676V15.4565C13.3333 16.1238 12.7905 16.6667 12.1232 16.6667H4.54338C3.87613 16.6667 3.33329 16.1238 3.33329 15.4566V7.87676Z" fill="#CDD2D1"/>
</g>
</svg>
