<svg width="18" height="18" viewBox="0 0 18 18" fill="none" xmlns="http://www.w3.org/2000/svg">
<path d="M16.8525 11.1455L15.3525 9.64546C15.2587 9.55172 15.1316 9.49907 14.999 9.49907C14.8664 9.49907 14.7393 9.55172 14.6455 9.64546L14.1815 10.1092L11.4632 3.31321C11.4327 3.2368 11.3837 3.16911 11.3207 3.11617C11.2576 3.06323 11.1825 3.02666 11.102 3.00971L1.60199 1.00971H1.59899C1.56206 1.0023 1.5244 0.999115 1.48674 1.00021C1.47599 1.00021 1.46524 1.00221 1.45449 1.00321C1.42776 1.00551 1.40126 1.00994 1.37524 1.01646C1.36299 1.01971 1.35024 1.02321 1.33924 1.02721C1.31382 1.03593 1.28915 1.04672 1.26549 1.05946C1.25574 1.06471 1.24574 1.06896 1.23624 1.07396C1.2033 1.09417 1.17285 1.11816 1.14549 1.14546C1.11821 1.17282 1.09421 1.20328 1.07399 1.23621C1.06824 1.24571 1.06399 1.25546 1.05899 1.26521C1.04595 1.28923 1.035 1.31432 1.02624 1.34021C1.02399 1.35146 1.01974 1.36271 1.01674 1.37396C1.00988 1.4006 1.00536 1.42778 1.00324 1.45521C1.00324 1.46546 1.00049 1.47546 1.00024 1.48596C0.999068 1.52369 1.00217 1.56143 1.00949 1.59846V1.60146L3.00949 11.1015C3.02644 11.182 3.06301 11.2571 3.11595 11.3201C3.1689 11.3832 3.23658 11.4321 3.31299 11.4627L10.1092 14.1815L9.64549 14.6455C9.55176 14.7392 9.4991 14.8664 9.4991 14.999C9.4991 15.1315 9.55176 15.2587 9.64549 15.3525L11.1455 16.8525C11.2393 16.9462 11.3664 16.9989 11.499 16.9989C11.6316 16.9989 11.7587 16.9462 11.8525 16.8525L16.8525 11.8525C16.9462 11.7587 16.9989 11.6315 16.9989 11.499C16.9989 11.3664 16.9462 11.2392 16.8525 11.1455ZM3.93324 10.6342L2.33474 3.04171L5.64549 6.35246C5.66678 6.37329 5.68987 6.3922 5.71449 6.40896C5.51189 6.77871 5.44945 7.20913 5.53862 7.62121C5.6278 8.03329 5.8626 8.39939 6.19994 8.6523C6.53728 8.90521 6.95452 9.02797 7.37508 8.99805C7.79564 8.96812 8.19129 8.78752 8.48942 8.48939C8.78755 8.19126 8.96815 7.79561 8.99808 7.37505C9.028 6.95449 8.90524 6.53725 8.65233 6.19991C8.39942 5.86257 8.03333 5.62777 7.62124 5.53859C7.20916 5.44942 6.77874 5.51186 6.40899 5.71446C6.39223 5.68984 6.37332 5.66675 6.35249 5.64546L3.04174 2.33471L10.6342 3.93321L13.4122 10.8787L10.8787 13.4122L3.93324 10.6342ZM7.24899 6.49896C7.39733 6.49896 7.54233 6.54295 7.66567 6.62536C7.78901 6.70777 7.88514 6.8249 7.9419 6.96195C7.99867 7.09899 8.01352 7.24979 7.98458 7.39528C7.95564 7.54076 7.88421 7.6744 7.77932 7.77929C7.67443 7.88418 7.5408 7.95561 7.39531 7.98455C7.24982 8.01349 7.09902 7.99864 6.96198 7.94187C6.82493 7.8851 6.7078 7.78897 6.62539 7.66564C6.54298 7.5423 6.49899 7.3973 6.49899 7.24896C6.49899 7.05005 6.57801 6.85928 6.71866 6.71863C6.85931 6.57798 7.05008 6.49896 7.24899 6.49896ZM11.499 15.792L10.7062 14.999L14.999 10.706L15.7917 11.499L11.499 15.792Z" fill="white" stroke="white" stroke-width="0.2"/>
</svg>
