<svg width="16" height="16" viewBox="0 0 16 16" fill="none" xmlns="http://www.w3.org/2000/svg">
<g id="edit-button 1" clip-path="url(#clip0_576_2038)">
<g id="Group">
<path id="Vector" d="M15.3486 0.539698L15.3293 0.522134C14.9594 0.185759 14.4799 0.000488281 13.9792 0.000488281C13.4178 0.000488281 12.8788 0.237075 12.5004 0.649531L5.34449 8.44914C5.27926 8.52022 5.22979 8.60409 5.1992 8.6954L4.35778 11.2067C4.26049 11.4971 4.30932 11.8182 4.48837 12.0656C4.66884 12.315 4.95959 12.4639 5.26618 12.4639C5.39879 12.4639 5.52846 12.4368 5.6514 12.3832L8.08765 11.3221C8.17623 11.2835 8.25569 11.2269 8.32087 11.1558L15.4768 3.35627C16.2214 2.5447 16.164 1.28128 15.3486 0.539698ZM5.96992 10.7428L6.46367 9.26919L6.50531 9.22379L7.44112 10.0747L7.39948 10.1201L5.96992 10.7428ZM14.4565 2.4284L8.3731 9.05901L7.4373 8.20806L13.5207 1.5774C13.6397 1.44771 13.8025 1.37626 13.9792 1.37626C14.1342 1.37626 14.2827 1.43367 14.3975 1.53814L14.4168 1.5557C14.6695 1.78541 14.6872 2.17691 14.4565 2.4284Z" fill="#AFAFAF"/>
<path id="Vector_2" d="M13.9615 6.34712C13.5799 6.34712 13.2705 6.65511 13.2705 7.035V12.875C13.2705 13.8396 12.4822 14.6244 11.5134 14.6244H3.13921C2.17029 14.6244 1.38206 13.8396 1.38206 12.875V4.60562C1.38206 3.64102 2.17033 2.85624 3.13921 2.85624H9.20046C9.58204 2.85624 9.8914 2.54825 9.8914 2.16835C9.8914 1.78846 9.58204 1.48047 9.20046 1.48047H3.13921C1.40832 1.48047 0.000183105 2.88242 0.000183105 4.60562V12.875C0.000183105 14.5982 1.40836 16.0001 3.13921 16.0001H11.5133C13.2442 16.0001 14.6523 14.5982 14.6523 12.875V7.035C14.6524 6.65511 14.343 6.34712 13.9615 6.34712Z" fill="#AFAFAF"/>
</g>
</g>
<defs>
<clipPath id="clip0_576_2038">
<rect width="16" height="16" fill="white"/>
</clipPath>
</defs>
</svg>
