<svg width="16" height="16" viewBox="0 0 16 16" fill="none" xmlns="http://www.w3.org/2000/svg">
<g id="Group">
<path id="Vector" d="M15.3489 0.539219L15.3296 0.521654C14.9597 0.185273 14.4802 0 13.9794 0C13.4181 0 12.8791 0.23659 12.5006 0.649053L5.34462 8.44878C5.2794 8.51987 5.22993 8.60374 5.19934 8.69505L4.3579 11.2064C4.26061 11.4968 4.30944 11.8179 4.48849 12.0653C4.66897 12.3147 4.95972 12.4636 5.26632 12.4636C5.39893 12.4636 5.5286 12.4365 5.65154 12.3829L8.08784 11.3218C8.17642 11.2832 8.25588 11.2266 8.32106 11.1555L15.4771 3.35583C16.2218 2.54425 16.1643 1.28082 15.3489 0.539219ZM5.97007 10.7425L6.46383 9.26885L6.50547 9.22345L7.44129 10.0744L7.39965 10.1198L5.97007 10.7425ZM14.4568 2.42795L8.37329 9.05867L7.43747 8.2077L13.521 1.57693C13.6399 1.44724 13.8028 1.37579 13.9795 1.37579C14.1345 1.37579 14.2829 1.43321 14.3978 1.53768L14.4171 1.55524C14.6697 1.78495 14.6875 2.17646 14.4568 2.42795Z" fill="#007DC0"/>
<path id="Vector_2" d="M13.9616 6.34671C13.58 6.34671 13.2707 6.6547 13.2707 7.0346V12.8747C13.2707 13.8393 12.4824 14.6241 11.5135 14.6241H3.1392C2.17026 14.6241 1.38202 13.8393 1.38202 12.8747V4.60518C1.38202 3.64057 2.17031 2.85577 3.1392 2.85577H9.20055C9.58214 2.85577 9.8915 2.54778 9.8915 2.16788C9.8915 1.78797 9.58214 1.47998 9.20055 1.47998H3.1392C1.40828 1.47998 0.00012207 2.88196 0.00012207 4.60518V12.8747C0.00012207 14.5979 1.40833 15.9999 3.1392 15.9999H11.5134C13.2443 15.9999 14.6525 14.5979 14.6525 12.8747V7.0346C14.6526 6.6547 14.3432 6.34671 13.9616 6.34671Z" fill="#007DC0"/>
</g>
</svg>
