<svg width="16" height="16" viewBox="0 0 16 16" fill="none" xmlns="http://www.w3.org/2000/svg">
<g id="fi_310152">
<g id="Group">
<g id="Group_2">
<path id="Vector" d="M14.2349 13.0599H3.96457C2.99129 13.0599 2.19947 12.2681 2.19947 11.2948V8.74408H0.505407C0.226282 8.74408 0 8.51777 0 8.23865C0 7.95952 0.226282 7.73324 0.505407 7.73324H2.19947V6.3762H1.35425C1.07513 6.3762 0.848845 6.14992 0.848845 5.8708C0.848845 5.59167 1.07513 5.36539 1.35425 5.36539H2.19944V4.70517C2.19944 3.73189 2.99126 2.94007 3.96454 2.94007H14.2349C15.2082 2.94007 16 3.73189 16 4.70517V11.2948C16 12.2681 15.2082 13.0599 14.2349 13.0599ZM3.96457 12.0491H14.2349C14.4142 12.0491 14.5789 11.9861 14.7085 11.8813L9.80308 8.28171C9.38899 7.97783 8.81052 7.97783 8.39642 8.28171L3.49101 11.8813C3.62054 11.9861 3.78532 12.0491 3.96457 12.0491ZM14.9892 4.70517C14.9892 4.28926 14.6509 3.95089 14.2349 3.95089H3.96457C3.54866 3.95089 3.21029 4.28923 3.21029 4.70517V5.36539H5.11348C5.3926 5.36539 5.61889 5.59167 5.61889 5.8708C5.61889 6.14992 5.3926 6.3762 5.11348 6.3762H3.21029V10.8335L7.79842 7.46677C8.18155 7.18558 8.64058 7.04508 9.09974 7.04508C9.55877 7.04508 10.018 7.18564 10.4011 7.46677L14.9892 10.8335L14.9892 4.70517Z" fill="white"/>
</g>
</g>
</g>
</svg>
