<svg width="24" height="24" viewBox="0 0 24 24" fill="none" xmlns="http://www.w3.org/2000/svg">
<path fill-rule="evenodd" clip-rule="evenodd" d="M2.69231 8.61538V6.35897C2.69231 5.38646 3.07815 4.45344 3.76636 3.76636C4.45344 3.07815 5.38646 2.69231 6.35897 2.69231H8.61538C9.08246 2.69231 9.46154 2.31323 9.46154 1.84615C9.46154 1.37908 9.08246 1 8.61538 1H6.35897C4.93744 1 3.57456 1.5641 2.56933 2.56933C1.5641 3.57456 1 4.93744 1 6.35897V8.61538C1 9.08246 1.37908 9.46154 1.84615 9.46154C2.31323 9.46154 2.69231 9.08246 2.69231 8.61538Z" fill="#808080"/>
<path fill-rule="evenodd" clip-rule="evenodd" d="M15.3847 2.69231H17.6411C18.6137 2.69231 19.5467 3.07815 20.2338 3.76636C20.922 4.45344 21.3078 5.38646 21.3078 6.35897V8.61538C21.3078 9.08246 21.6869 9.46154 22.154 9.46154C22.621 9.46154 23.0001 9.08246 23.0001 8.61538V6.35897C23.0001 4.93744 22.436 3.57456 21.4308 2.56933C20.4255 1.5641 19.0627 1 17.6411 1C16.3979 1 15.3847 1 15.3847 1C14.9177 1 14.5386 1.37908 14.5386 1.84615C14.5386 2.31323 14.9177 2.69231 15.3847 2.69231Z" fill="#808080"/>
<path fill-rule="evenodd" clip-rule="evenodd" d="M1 15.3842V17.6406C1 19.0622 1.5641 20.4251 2.56933 21.4303C3.57456 22.4355 4.93744 22.9996 6.35897 22.9996H8.61538C9.08246 22.9996 9.46154 22.6205 9.46154 22.1535C9.46154 21.6864 9.08246 21.3073 8.61538 21.3073H6.35897C5.38646 21.3073 4.45344 20.9215 3.76636 20.2333C3.07815 19.5462 2.69231 18.6132 2.69231 17.6406C2.69231 16.3974 2.69231 15.3842 2.69231 15.3842C2.69231 14.9172 2.31323 14.5381 1.84615 14.5381C1.37908 14.5381 1 14.9172 1 15.3842Z" fill="#808080"/>
<path fill-rule="evenodd" clip-rule="evenodd" d="M15.3847 22.9996H17.6411C19.0627 22.9996 20.4255 22.4355 21.4308 21.4303C22.436 20.4251 23.0001 19.0622 23.0001 17.6406C23.0001 16.3974 23.0001 15.3842 23.0001 15.3842C23.0001 14.9172 22.621 14.5381 22.154 14.5381C21.6869 14.5381 21.3078 14.9172 21.3078 15.3842V17.6406C21.3078 18.6132 20.922 19.5462 20.2338 20.2333C19.5467 20.9215 18.6137 21.3073 17.6411 21.3073C16.3979 21.3073 15.3847 21.3073 15.3847 21.3073C14.9177 21.3073 14.5386 21.6864 14.5386 22.1535C14.5386 22.6205 14.9177 22.9996 15.3847 22.9996Z" fill="#808080"/>
<path fill-rule="evenodd" clip-rule="evenodd" d="M15.1025 8.05123V9.17944C15.1025 9.64651 15.4816 10.0256 15.9487 10.0256C16.4158 10.0256 16.7948 9.64651 16.7948 9.17944V8.05123C16.7948 7.58416 16.4158 7.20508 15.9487 7.20508C15.4816 7.20508 15.1025 7.58416 15.1025 8.05123Z" fill="#808080"/>
<path fill-rule="evenodd" clip-rule="evenodd" d="M7.20508 8.05123V9.17944C7.20508 9.64651 7.58416 10.0256 8.05123 10.0256C8.51831 10.0256 8.89739 9.64651 8.89739 9.17944V8.05123C8.89739 7.58416 8.51831 7.20508 8.05123 7.20508C7.58416 7.20508 7.20508 7.58416 7.20508 8.05123Z" fill="#808080"/>
<path fill-rule="evenodd" clip-rule="evenodd" d="M11.7178 12.6047V9.74361C11.7178 9.27654 12.0969 8.89746 12.564 8.89746C13.031 8.89746 13.4101 9.27654 13.4101 9.74361V13.1282C13.4101 13.4486 13.2285 13.742 12.9419 13.8853L11.8137 14.4494C11.3963 14.6581 10.8874 14.4888 10.6787 14.0703C10.47 13.6528 10.6392 13.144 11.0578 12.9353L11.7178 12.6047Z" fill="#808080"/>
<path fill-rule="evenodd" clip-rule="evenodd" d="M15.3507 15.3507C15.5042 15.1973 15.7151 15.1025 15.9487 15.1025C16.4157 15.1025 16.7948 15.4816 16.7948 15.9487C16.7948 16.1822 16.7001 16.3932 16.5466 16.5466C16.3932 16.7001 16.5466 16.5478 16.5455 16.5489C14.0352 19.0592 9.96467 19.0592 7.45441 16.5489C7.45328 16.5478 7.45328 16.5466 7.45328 16.5466C7.29985 16.3932 7.20508 16.1822 7.20508 15.9487C7.20508 15.4816 7.58416 15.1025 8.05123 15.1025C8.28477 15.1025 8.49574 15.1973 8.64918 15.3507C8.80262 15.5042 8.65031 15.3507 8.65144 15.3519C10.5006 17.201 13.4993 17.201 15.3485 15.3519C15.3496 15.3507 15.3507 15.3507 15.3507 15.3507Z" fill="#808080"/>
</svg>
