<svg width="24" height="24" viewBox="0 0 24 24" fill="none" xmlns="http://www.w3.org/2000/svg">
<path fill-rule="evenodd" clip-rule="evenodd" d="M11.2293 1.22839C11.7775 0.92387 12.4439 0.92387 12.9921 1.22839L21.6178 6.02052C22.2402 6.36626 22.2402 7.26125 21.6178 7.60698L12.5513 12.644C12.2773 12.7962 11.944 12.7962 11.67 12.644L2.60346 7.60698C1.98114 7.26125 1.98114 6.36627 2.60346 6.02052L11.2293 1.22839ZM12.2366 2.5882C12.1583 2.5447 12.0631 2.5447 11.9848 2.5882L4.37878 6.81375L12.1107 11.1092L19.8426 6.81375L12.2366 2.5882Z" fill="#007DC0"/>
<path fill-rule="evenodd" clip-rule="evenodd" d="M20.875 6.2405C21.4798 5.90449 22.223 6.34182 22.223 7.03372V16.5737C22.223 17.2328 21.8657 17.8401 21.2896 18.1602L12.682 22.9421C12.0772 23.2781 11.334 22.8407 11.334 22.1488V12.0749C11.334 11.7454 11.5127 11.4418 11.8008 11.2818L20.875 6.2405ZM20.6675 8.13528L12.8896 12.4563V21.0474L20.5341 16.8003C20.6164 16.7546 20.6675 16.6679 20.6675 16.5737V8.13528Z" fill="#007DC0"/>
<path fill-rule="evenodd" clip-rule="evenodd" d="M3.34811 6.2405C2.74329 5.90449 2 6.34182 2 7.03372V16.5737C2 17.2328 2.35733 17.8401 2.93348 18.1602L11.541 22.9421C12.1458 23.2781 12.889 22.8407 12.889 22.1488V12.0749C12.889 11.7454 12.7104 11.4418 12.4223 11.2818L3.34811 6.2405ZM3.55558 8.13528L11.3335 12.4563V21.0474L3.68893 16.8003C3.60662 16.7546 3.55558 16.6679 3.55558 16.5737V8.13528Z" fill="#007DC0"/>
</svg>
