<svg width="24" height="24" viewBox="0 0 24 24" fill="none" xmlns="http://www.w3.org/2000/svg">
<g clip-path="url(#clip0_170_970)">
<path d="M21.195 4.7775L18.525 3.885L17.1675 1.1625C17.04 0.9075 16.7775 0.75 16.5 0.75H7.5C7.215 0.75 6.96 0.9075 6.8325 1.1625L5.475 3.885L2.805 4.7775C1.575 5.1825 0.75 6.33 0.75 7.62V20.25C0.75 21.9075 2.0925 23.25 3.75 23.25H20.25C21.9075 23.25 23.25 21.9075 23.25 20.25V7.62C23.25 6.33 22.425 5.1825 21.195 4.7775ZM17.205 4.5975L16.2375 8.9475C16.185 9.195 16.02 9.39 15.7875 9.48C15.555 9.57 15.3 9.5475 15.09 9.405L13.035 8.0325L16.4025 2.985L17.205 4.59V4.5975ZM11.9925 6.9L8.895 2.25H15.09L11.9925 6.9ZM7.5825 2.9925L10.95 8.04L8.895 9.4125C8.685 9.555 8.43 9.5775 8.1975 9.4875C7.965 9.3975 7.8 9.2025 7.7475 8.955L6.78 4.605L7.5825 3V2.9925ZM21.7425 20.25C21.7425 21.075 21.0675 21.75 20.2425 21.75H3.75C2.925 21.75 2.25 21.075 2.25 20.25V7.62C2.25 6.975 2.6625 6.405 3.2775 6.195L5.4525 5.4675L6.3 9.27C6.4575 9.9975 6.9675 10.59 7.6575 10.8675C8.3475 11.145 9.1275 11.0625 9.7425 10.65L12.0075 9.1425L14.2725 10.65C14.6475 10.8975 15.0825 11.025 15.5175 11.025C15.8025 11.025 16.0875 10.9725 16.3575 10.86C17.0475 10.5825 17.55 9.9825 17.715 9.2625L18.5625 5.46L20.7375 6.1875C21.3525 6.39 21.765 6.96 21.765 7.6125V20.2425L21.7425 20.25Z" fill="#007DC0"/>
<path d="M12 14.25C11.5875 14.25 11.25 14.5875 11.25 15V19.5C11.25 19.9125 11.5875 20.25 12 20.25C12.4125 20.25 12.75 19.9125 12.75 19.5V15C12.75 14.5875 12.4125 14.25 12 14.25Z" fill="#007DC0"/>
<path d="M12 11.0625C11.5875 11.0625 11.25 11.4 11.25 11.8125V12.1875C11.25 12.6 11.5875 12.9375 12 12.9375C12.4125 12.9375 12.75 12.6 12.75 12.1875V11.8125C12.75 11.4 12.4125 11.0625 12 11.0625Z" fill="#007DC0"/>
</g>
<defs>
<clipPath id="clip0_170_970">
<rect width="24" height="24" fill="white"/>
</clipPath>
</defs>
</svg>
