<svg width="24" height="24" viewBox="0 0 24 24" fill="none" xmlns="http://www.w3.org/2000/svg">
<path d="M22.2326 14.3023H19.9302V9.69767H22.2326C22.6521 9.69767 23 9.34977 23 8.93023C23 8.5107 22.6521 8.16279 22.2326 8.16279H19.9302V6.88372C19.9302 5.32837 18.6716 4.06977 17.1163 4.06977H15.8372V1.76744C15.8372 1.34791 15.4893 1 15.0698 1C14.6502 1 14.3023 1.34791 14.3023 1.76744V4.06977H9.69767V1.76744C9.69767 1.34791 9.34977 1 8.93023 1C8.5107 1 8.16279 1.34791 8.16279 1.76744V4.06977H6.88372C5.32837 4.06977 4.06977 5.32837 4.06977 6.88372V8.16279H1.76744C1.34791 8.16279 1 8.5107 1 8.93023C1 9.34977 1.34791 9.69767 1.76744 9.69767H4.06977V14.3023H1.76744C1.34791 14.3023 1 14.6502 1 15.0698C1 15.4893 1.34791 15.8372 1.76744 15.8372H4.06977V17.1163C4.06977 18.6716 5.32837 19.9302 6.88372 19.9302H8.16279V22.2326C8.16279 22.6521 8.5107 23 8.93023 23C9.34977 23 9.69767 22.6521 9.69767 22.2326V19.9302H14.3023V22.2326C14.3023 22.6521 14.6502 23 15.0698 23C15.4893 23 15.8372 22.6521 15.8372 22.2326V19.9302H17.1163C18.6716 19.9302 19.9302 18.6716 19.9302 17.1163V15.8372H22.2326C22.6521 15.8372 23 15.4893 23 15.0698C23 14.6502 22.6521 14.3023 22.2326 14.3023ZM18.3953 17.1163C18.3953 17.8223 17.8223 18.3953 17.1163 18.3953H6.88372C6.17767 18.3953 5.60465 17.8223 5.60465 17.1163V6.88372C5.60465 6.17767 6.17767 5.60465 6.88372 5.60465H17.1163C17.8223 5.60465 18.3953 6.17767 18.3953 6.88372V17.1163ZM10.8335 9.98419L8.81767 12L10.8335 14.0158C11.1302 14.3126 11.1302 14.8037 10.8335 15.1005C10.68 15.254 10.4856 15.3256 10.2912 15.3256C10.0967 15.3256 9.90233 15.254 9.74884 15.1005L7.1907 12.5423C6.89395 12.2456 6.89395 11.7544 7.1907 11.4577L9.74884 8.89954C10.0456 8.60279 10.5367 8.60279 10.8335 8.89954C11.1302 9.19628 11.1302 9.68744 10.8335 9.98419ZM16.7991 11.4577C17.0958 11.7544 17.0958 12.2456 16.7991 12.5423L14.2409 15.1005C14.0874 15.254 13.893 15.3256 13.6986 15.3256C13.5042 15.3256 13.3098 15.254 13.1563 15.1005C12.8595 14.8037 12.8595 14.3126 13.1563 14.0158L15.1721 12L13.1563 9.98419C12.8595 9.68744 12.8595 9.19628 13.1563 8.89954C13.453 8.60279 13.9442 8.60279 14.2409 8.89954L16.7991 11.4577Z" fill="#808080"/>
</svg>
