<svg width="24" height="24" viewBox="0 0 24 24" fill="none" xmlns="http://www.w3.org/2000/svg">
<path d="M22.2344 0.0535024C21.9718 -0.0552476 21.6692 0.00484617 21.4681 0.20594L1.537 20.137C1.26241 20.4115 1.26241 20.8567 1.537 21.1313L4.19973 23.794C4.33703 23.9313 4.51698 24 4.69689 24C4.8768 24 5.0568 23.9313 5.19405 23.794L11.2543 17.7337L13.0543 18.5043C13.1435 18.5425 13.2376 18.561 13.3308 18.561C13.5137 18.561 13.6936 18.4897 13.8281 18.3551L16.4375 15.7457C18.423 13.7603 19.9745 11.4382 21.049 8.84416C22.1235 6.25005 22.6683 3.5111 22.6683 0.703284V0.703096C22.6684 0.418706 22.4971 0.162299 22.2344 0.0535024ZM4.69689 22.3025L3.02856 20.6342L6.29448 17.3682L7.96281 19.0366L4.69689 22.3025ZM8.95722 18.0422L7.28889 16.3738L8.42467 15.238L10.093 16.9064L8.95722 18.0422ZM19.7499 8.30608C18.7464 10.7287 17.2975 12.8972 15.4433 14.7514L13.1703 17.0243L11.473 16.2977L9.41912 14.2437L21.1836 2.47914C21.0055 4.48042 20.5255 6.43366 19.7499 8.30608Z" fill="#007DC0"/>
</svg>
