<svg width="24" height="24" viewBox="0 0 24 24" fill="none" xmlns="http://www.w3.org/2000/svg">
<path d="M21.625 4.66699H2.375C2.01033 4.66699 1.66059 4.84529 1.40273 5.16266C1.14487 5.48003 1 5.91047 1 6.3593L1 17.6414C1 18.0902 1.14487 18.5206 1.40273 18.838C1.66059 19.1554 2.01033 19.3337 2.375 19.3337H21.625C21.9897 19.3337 22.3394 19.1554 22.5973 18.838C22.8551 18.5206 23 18.0902 23 17.6414V6.3593C23 5.91047 22.8551 5.48003 22.5973 5.16266C22.3394 4.84529 21.9897 4.66699 21.625 4.66699ZM22.0833 17.6414C22.0833 17.791 22.035 17.9344 21.9491 18.0402C21.8631 18.146 21.7466 18.2055 21.625 18.2055H2.375C2.25344 18.2055 2.13686 18.146 2.05091 18.0402C1.96496 17.9344 1.91667 17.791 1.91667 17.6414V6.3593C1.91667 6.20969 1.96496 6.06621 2.05091 5.96042C2.13686 5.85463 2.25344 5.7952 2.375 5.7952H21.625C21.7466 5.7952 21.8631 5.85463 21.9491 5.96042C22.035 6.06621 22.0833 6.20969 22.0833 6.3593V17.6414Z" fill="#007DC0" stroke="#007DC0" stroke-width="0.3"/>
<path d="M5.58317 9.70898H4.6665C4.30183 9.70898 3.95209 9.85385 3.69423 10.1117C3.43637 10.3696 3.2915 10.7193 3.2915 11.084V12.9173C3.2915 13.282 3.43637 13.6317 3.69423 13.8896C3.95209 14.1475 4.30183 14.2923 4.6665 14.2923H5.58317C5.94784 14.2923 6.29758 14.1475 6.55544 13.8896C6.81331 13.6317 6.95817 13.282 6.95817 12.9173V11.084C6.95817 10.7193 6.81331 10.3696 6.55544 10.1117C6.29758 9.85385 5.94784 9.70898 5.58317 9.70898ZM4.6665 10.6257H5.58317L4.20817 12.459V11.084C4.20817 10.9624 4.25646 10.8458 4.34241 10.7599C4.42837 10.6739 4.54495 10.6257 4.6665 10.6257ZM5.58317 13.3757H4.6665L6.0415 11.5423V12.9173C6.0415 13.0389 5.99322 13.1555 5.90726 13.2414C5.82131 13.3274 5.70473 13.3757 5.58317 13.3757Z" fill="#007DC0" stroke="#007DC0" stroke-width="0.3"/>
<path d="M14.7502 9.70898H13.8335C13.4688 9.70898 13.1191 9.85385 12.8612 10.1117C12.6034 10.3696 12.4585 10.7193 12.4585 11.084V12.9173C12.4585 13.282 12.6034 13.6317 12.8612 13.8896C13.1191 14.1475 13.4688 14.2923 13.8335 14.2923H14.7502C15.1148 14.2923 15.4646 14.1475 15.7224 13.8896C15.9803 13.6317 16.1252 13.282 16.1252 12.9173V11.084C16.1252 10.7193 15.9803 10.3696 15.7224 10.1117C15.4646 9.85385 15.1148 9.70898 14.7502 9.70898ZM13.8335 10.6257H14.7502L13.3752 12.459V11.084C13.3752 10.9624 13.4235 10.8458 13.5094 10.7599C13.5954 10.6739 13.7119 10.6257 13.8335 10.6257ZM14.7502 13.3757H13.8335L15.2085 11.5423V12.9173C15.2085 13.0389 15.1602 13.1555 15.0743 13.2414C14.9883 13.3274 14.8717 13.3757 14.7502 13.3757Z" fill="#007DC0" stroke="#007DC0" stroke-width="0.3"/>
<path d="M9.25 12.459H10.625V13.834C10.625 13.9555 10.6733 14.0721 10.7592 14.1581C10.8452 14.244 10.9618 14.2923 11.0833 14.2923C11.2049 14.2923 11.3215 14.244 11.4074 14.1581C11.4934 14.0721 11.5417 13.9555 11.5417 13.834V10.1673C11.5417 10.0458 11.4934 9.92918 11.4074 9.84323C11.3215 9.75727 11.2049 9.70898 11.0833 9.70898C10.9618 9.70898 10.8452 9.75727 10.7592 9.84323C10.6733 9.92918 10.625 10.0458 10.625 10.1673V11.5423H9.25C9.12844 11.5423 9.01186 11.494 8.92591 11.4081C8.83995 11.3221 8.79167 11.2055 8.79167 11.084V10.1673C8.79167 10.0458 8.74338 9.92918 8.65742 9.84323C8.57147 9.75727 8.45489 9.70898 8.33333 9.70898C8.21178 9.70898 8.0952 9.75727 8.00924 9.84323C7.92329 9.92918 7.875 10.0458 7.875 10.1673V11.084C7.875 11.4487 8.01987 11.7984 8.27773 12.0563C8.53559 12.3141 8.88533 12.459 9.25 12.459Z" fill="#007DC0" stroke="#007DC0" stroke-width="0.3"/>
<path d="M20.2498 10.6257C20.3714 10.6257 20.488 10.5774 20.5739 10.4914C20.6599 10.4055 20.7082 10.2889 20.7082 10.1673C20.7082 10.0458 20.6599 9.92918 20.5739 9.84323C20.488 9.75727 20.3714 9.70898 20.2498 9.70898H17.9582C17.7151 9.70898 17.4819 9.80556 17.31 9.97747C17.1381 10.1494 17.0415 10.3825 17.0415 10.6257V11.5423C17.0415 11.7854 17.1381 12.0186 17.31 12.1905C17.4819 12.3624 17.7151 12.459 17.9582 12.459H19.7915V13.3757H17.4998C17.3783 13.3757 17.2617 13.4239 17.1757 13.5099C17.0898 13.5958 17.0415 13.7124 17.0415 13.834C17.0415 13.9555 17.0898 14.0721 17.1757 14.1581C17.2617 14.244 17.3783 14.2923 17.4998 14.2923H19.7915C20.0346 14.2923 20.2678 14.1957 20.4397 14.0238C20.6116 13.8519 20.7082 13.6188 20.7082 13.3757V12.459C20.7082 12.2159 20.6116 11.9827 20.4397 11.8108C20.2678 11.6389 20.0346 11.5423 19.7915 11.5423H17.9582V10.6257H20.2498Z" fill="#007DC0" stroke="#007DC0" stroke-width="0.3"/>
</svg>
