<svg width="14" height="16" viewBox="0 0 14 16" fill="none" xmlns="http://www.w3.org/2000/svg">
<g clip-path="url(#clip0_204_37)">
<path d="M1.23535 5.04775V13.3047C1.25331 14.0438 1.55856 14.7289 2.09723 15.2427C2.61795 15.7385 3.29129 16.0089 4.00055 16.0089C4.02748 16.0089 4.04543 16.0089 4.07237 16.0089H9.93494C9.93494 16.0089 9.97983 16.0089 10.0068 16.0089C10.716 16.0089 11.3894 15.7385 11.9101 15.2427C12.4398 14.7379 12.745 14.0438 12.772 13.3047V5.04775C12.772 4.87649 12.7091 4.72325 12.5924 4.60606C12.359 4.3717 11.946 4.3717 11.7126 4.60606C11.5958 4.72325 11.533 4.87649 11.533 5.04775V13.3047C11.5061 13.7193 11.3355 14.0889 11.0302 14.3593C10.734 14.6297 10.3479 14.7649 9.93494 14.7469H4.06339C3.66836 14.7559 3.27334 14.6297 2.97706 14.3593C2.68079 14.0889 2.50124 13.7193 2.4743 13.3047V5.04775C2.4743 4.87649 2.41146 4.72325 2.29474 4.60606C2.17803 4.48888 2.01643 4.42578 1.85483 4.42578C1.69322 4.42578 1.53162 4.48888 1.41491 4.60606C1.2982 4.72325 1.23535 4.8855 1.23535 5.04775Z" fill="white"/>
<path d="M9.6395 0.180282C9.52279 0.0630986 9.36119 0 9.19958 0H4.79144C4.62983 0 4.46823 0.0630986 4.35152 0.180282C4.23481 0.297465 4.17196 0.450704 4.17196 0.621972V2.20845H1.11948C0.948895 2.20845 0.796271 2.27155 0.679558 2.38873C0.562845 2.50592 0.5 2.66817 0.5 2.83042C0.5 2.99268 0.562845 3.15493 0.679558 3.27211C0.796271 3.3893 0.957873 3.45239 1.11948 3.45239H12.8715C13.0331 3.45239 13.1948 3.3893 13.3115 3.27211C13.4282 3.15493 13.491 3.00169 13.491 2.83042C13.491 2.65916 13.4282 2.50592 13.3115 2.38873C13.1948 2.27155 13.0331 2.20845 12.8715 2.20845H9.81906V0.621972C9.81906 0.450704 9.75622 0.297465 9.6395 0.180282ZM8.58011 2.20845H5.41989V1.24394H8.58011V2.20845Z" fill="white"/>
<path d="M6.14715 11.6816V6.5165C6.14715 6.34524 6.08431 6.192 5.9676 6.07481C5.85088 5.95763 5.68928 5.89453 5.52768 5.89453C5.36608 5.89453 5.20447 5.95763 5.08776 6.07481C4.97105 6.192 4.9082 6.35425 4.9082 6.5165V11.6816C4.9082 11.8438 4.97105 12.0061 5.08776 12.1233C5.32119 12.3576 5.73417 12.3576 5.9676 12.1233C6.08431 12.0061 6.14715 11.8438 6.14715 11.6816Z" fill="white"/>
<path d="M9.09247 11.6816V6.5165C9.09247 6.35425 9.02962 6.192 8.91291 6.07481C8.7962 5.95763 8.63459 5.89453 8.47299 5.89453C8.31139 5.89453 8.14979 5.95763 8.03307 6.07481C7.91636 6.192 7.85352 6.34524 7.85352 6.5165V11.6816C7.85352 11.8438 7.91636 12.0061 8.03307 12.1233C8.2665 12.3576 8.67948 12.3576 8.91291 12.1233C9.02962 12.0061 9.09247 11.8438 9.09247 11.6816Z" fill="white"/>
</g>
<defs>
<clipPath id="clip0_204_37">
<rect width="13" height="16" fill="white" transform="translate(0.5)"/>
</clipPath>
</defs>
</svg>
