<svg width="14" height="16" viewBox="0 0 14 16" fill="none" xmlns="http://www.w3.org/2000/svg">
<g id="Group 3588 1" clip-path="url(#clip0_640_1876)">
<path id="Vector" d="M1.23553 5.04775V13.3047C1.25349 14.0438 1.55874 14.7289 2.09741 15.2427C2.61813 15.7385 3.29147 16.0089 4.00073 16.0089C4.02766 16.0089 4.04562 16.0089 4.07255 16.0089H9.93512C9.93512 16.0089 9.98001 16.0089 10.0069 16.0089C10.7162 16.0089 11.3895 15.7385 11.9103 15.2427C12.44 14.7379 12.7452 14.0438 12.7721 13.3047V5.04775C12.7721 4.87649 12.7093 4.72325 12.5926 4.60606C12.3592 4.3717 11.9462 4.3717 11.7127 4.60606C11.596 4.72325 11.5332 4.87649 11.5332 5.04775V13.3047C11.5063 13.7193 11.3357 14.0889 11.0304 14.3593C10.7342 14.6297 10.3481 14.7649 9.93512 14.7469H4.06357C3.66855 14.7559 3.27352 14.6297 2.97725 14.3593C2.68098 14.0889 2.50142 13.7193 2.47449 13.3047V5.04775C2.47449 4.87649 2.41164 4.72325 2.29493 4.60606C2.17821 4.48888 2.01661 4.42578 1.85501 4.42578C1.69341 4.42578 1.53181 4.48888 1.41509 4.60606C1.29838 4.72325 1.23553 4.8855 1.23553 5.04775Z" fill="#E42727"/>
<path id="Vector_2" d="M9.6395 0.180282C9.52279 0.0630986 9.36119 0 9.19958 0H4.79144C4.62983 0 4.46823 0.0630986 4.35152 0.180282C4.23481 0.297465 4.17196 0.450704 4.17196 0.621972V2.20845H1.11948C0.948895 2.20845 0.796271 2.27155 0.679558 2.38873C0.562845 2.50592 0.5 2.66817 0.5 2.83042C0.5 2.99268 0.562845 3.15493 0.679558 3.27211C0.796271 3.3893 0.957873 3.45239 1.11948 3.45239H12.8715C13.0331 3.45239 13.1948 3.3893 13.3115 3.27211C13.4282 3.15493 13.491 3.00169 13.491 2.83042C13.491 2.65916 13.4282 2.50592 13.3115 2.38873C13.1948 2.27155 13.0331 2.20845 12.8715 2.20845H9.81906V0.621972C9.81906 0.450704 9.75622 0.297465 9.6395 0.180282ZM8.58011 2.20845H5.41989V1.24394H8.58011V2.20845Z" fill="#E42727"/>
<path id="Vector_3" d="M6.14709 11.6816V6.5165C6.14709 6.34524 6.08425 6.192 5.96753 6.07481C5.85082 5.95763 5.68922 5.89453 5.52762 5.89453C5.36602 5.89453 5.20441 5.95763 5.0877 6.07481C4.97099 6.192 4.90814 6.35425 4.90814 6.5165V11.6816C4.90814 11.8438 4.97099 12.0061 5.0877 12.1233C5.32113 12.3576 5.73411 12.3576 5.96753 12.1233C6.08425 12.0061 6.14709 11.8438 6.14709 11.6816Z" fill="#E42727"/>
<path id="Vector_4" d="M9.09241 11.6816V6.5165C9.09241 6.35425 9.02956 6.192 8.91285 6.07481C8.79613 5.95763 8.63453 5.89453 8.47293 5.89453C8.31133 5.89453 8.14973 5.95763 8.03301 6.07481C7.9163 6.192 7.85345 6.34524 7.85345 6.5165V11.6816C7.85345 11.8438 7.9163 12.0061 8.03301 12.1233C8.26644 12.3576 8.67942 12.3576 8.91285 12.1233C9.02956 12.0061 9.09241 11.8438 9.09241 11.6816Z" fill="#E42727"/>
</g>
<defs>
<clipPath id="clip0_640_1876">
<rect width="13" height="16" fill="white" transform="translate(0.5)"/>
</clipPath>
</defs>
</svg>
