<svg width="24" height="24" viewBox="0 0 24 24" fill="none" xmlns="http://www.w3.org/2000/svg">
<path d="M21.2243 12.078L20.0081 11.4C20.051 11.0969 20.0726 10.7913 20.0727 10.4852C20.0787 10.1887 20.0498 9.89245 19.9866 9.60267L21.192 8.90312C21.5113 8.72611 21.7589 8.44345 21.8925 8.10369C22.026 7.76393 22.0371 7.38827 21.9238 7.04122C21.4827 5.77821 20.8072 4.60977 19.9328 3.59726C19.6964 3.32787 19.373 3.1501 19.0189 3.09501C18.6647 3.03993 18.3025 3.11104 17.9955 3.29591L16.9193 3.93089H16.8117C16.3277 3.58687 15.7942 3.31834 15.2296 3.13448V1.87528C15.2569 1.4895 15.1448 1.10674 14.9137 0.796638C14.6826 0.486535 14.3479 0.269699 13.9704 0.185581C12.6654 -0.0618602 11.3256 -0.0618602 10.0206 0.185581C9.66831 0.257494 9.35165 0.448862 9.12417 0.727328C8.89669 1.00579 8.77235 1.35427 8.77218 1.71384V3.08066C8.22249 3.3262 7.70843 3.64477 7.24392 4.02775L6.16768 3.40354C5.84976 3.18083 5.46185 3.08099 5.07592 3.12255C4.68998 3.16412 4.33222 3.34425 4.06901 3.62955C3.19807 4.63243 2.52273 5.78962 2.07797 7.04122C1.96563 7.38442 1.97493 7.75583 2.1043 8.09297C2.23366 8.43011 2.47521 8.71241 2.78829 8.89236L3.97215 9.60267V10.4852C3.96715 10.7787 3.9997 11.0717 4.06901 11.3569L2.80981 12.0673C2.50205 12.2519 2.26622 12.5358 2.14106 12.8721C2.01589 13.2085 2.00883 13.5775 2.12102 13.9184C2.5273 15.0912 3.13557 16.1839 3.91834 17.1471C3.06873 18.3474 2.60338 19.7772 2.5838 21.2476C2.58663 21.7462 2.78596 22.2236 3.13856 22.5762C3.49116 22.9288 3.96858 23.1282 4.46722 23.131H19.5346C20.0332 23.1282 20.5106 22.9288 20.8632 22.5762C21.2158 22.2236 21.4152 21.7462 21.418 21.2476C21.4155 19.7711 20.9652 18.33 20.1265 17.1148C20.9125 16.1538 21.5211 15.0605 21.9238 13.8861C22.0243 13.5498 22.0101 13.1897 21.8834 12.8624C21.7568 12.535 21.5249 12.2591 21.2243 12.078ZM19.5346 21.5166H4.46722C4.39586 21.5166 4.32742 21.4883 4.27697 21.4378C4.22651 21.3874 4.19816 21.3189 4.19816 21.2476C4.201 19.7499 4.79721 18.3144 5.85622 17.2554C6.91524 16.1964 8.35075 15.6002 9.84842 15.5973H14.1534C15.651 15.6002 17.0866 16.1964 18.1456 17.2554C19.2046 18.3144 19.8008 19.7499 19.8036 21.2476C19.8036 21.3189 19.7753 21.3874 19.7248 21.4378C19.6744 21.4883 19.6059 21.5166 19.5346 21.5166ZM12.0009 13.983C11.3091 13.983 10.6328 13.7778 10.0576 13.3935C9.48243 13.0091 9.03411 12.4629 8.76937 11.8237C8.50463 11.1846 8.43536 10.4813 8.57033 9.80281C8.70529 9.12431 9.03842 8.50106 9.52759 8.01189C10.0168 7.52272 10.64 7.18958 11.3185 7.05462C11.997 6.91966 12.7003 6.98893 13.3394 7.25367C13.9786 7.5184 14.5248 7.96672 14.9092 8.54193C15.2935 9.11714 15.4987 9.7934 15.4987 10.4852C15.4958 11.412 15.1264 12.3 14.4711 12.9554C13.8157 13.6107 12.9277 13.9801 12.0009 13.983ZM19.0395 15.8664C18.0638 14.9714 16.8615 14.3609 15.5632 14.1014C16.0515 13.6338 16.4404 13.0726 16.7067 12.4512C16.973 11.8299 17.1112 11.1612 17.113 10.4852C17.113 9.12937 16.5744 7.82908 15.6157 6.87036C14.657 5.91165 13.3567 5.37305 12.0009 5.37305C10.6451 5.37305 9.34478 5.91165 8.38607 6.87036C7.42736 7.82908 6.88876 9.12937 6.88876 10.4852C6.88772 11.1648 7.02452 11.8376 7.2909 12.4628C7.55728 13.0881 7.94769 13.6528 8.43854 14.1229C7.14252 14.3763 5.94044 14.9792 4.96229 15.8664C4.39087 15.1245 3.92709 14.3057 3.5847 13.4341L4.85467 12.7238C5.09665 12.5626 5.28915 12.3374 5.41076 12.0733C5.53236 11.8091 5.5783 11.5165 5.54346 11.2278C5.54346 10.9803 5.54346 10.7327 5.54346 10.4852C5.54346 10.2377 5.54346 9.97936 5.54346 9.77487C5.58694 9.46785 5.53861 9.15483 5.40455 8.87522C5.27049 8.59561 5.0567 8.36191 4.79009 8.20356L3.60623 7.57934C3.97215 6.54109 4.50667 5.57023 5.1883 4.70579C5.24324 4.71399 5.29514 4.73623 5.33897 4.77036L6.41521 5.40534C6.68163 5.55858 6.98759 5.62914 7.29421 5.60806C7.60083 5.58698 7.89426 5.47521 8.1372 5.28695C8.53572 4.99934 8.96533 4.75746 9.41792 4.56587C9.70327 4.45045 9.94778 4.25266 10.1203 3.99774C10.2928 3.74281 10.3855 3.44228 10.3865 3.13448L10.3112 1.76765C11.3999 1.56867 12.5157 1.56867 13.6045 1.76765C13.6109 1.80685 13.6109 1.84684 13.6045 1.88604V3.13448C13.6045 3.43832 13.6944 3.73536 13.863 3.98817C14.0315 4.24098 14.2711 4.43825 14.5516 4.55511C14.9998 4.75312 15.4255 4.99846 15.8215 5.28695C16.094 5.47391 16.4167 5.57397 16.7471 5.57397C17.0775 5.57397 17.4002 5.47391 17.6727 5.28695L18.7489 4.61969C19.4608 5.47441 20.0181 6.44686 20.3956 7.49325L19.1794 8.20356C18.9205 8.36272 18.7141 8.5945 18.5859 8.87005C18.4577 9.14561 18.4133 9.45278 18.4583 9.75335V10.4852C18.4561 10.73 18.4381 10.9745 18.4045 11.217C18.3701 11.5199 18.4239 11.8263 18.5594 12.0993C18.695 12.3724 18.9065 12.6004 19.1686 12.7561L20.3956 13.391C20.0846 14.2859 19.6263 15.1226 19.0395 15.8664Z" fill="#808080"/>
</svg>
