<svg width="24" height="24" viewBox="0 0 24 24" fill="none" xmlns="http://www.w3.org/2000/svg">
<path d="M22.2667 7.6C22.67 7.6 23 7.27 23 6.86667C23 6.46333 22.67 6.13333 22.2667 6.13333H20.7303C20.4443 4.69233 19.3077 3.55567 17.8667 3.26967V1.73333C17.8667 1.33 17.5367 1 17.1333 1C16.73 1 16.4 1.33 16.4 1.73333V3.2H15.3V1.73333C15.3 1.33 14.97 1 14.5667 1C14.1633 1 13.8333 1.33 13.8333 1.73333V3.2H12.7333V1.73333C12.7333 1.33 12.4033 1 12 1C11.5967 1 11.2667 1.33 11.2667 1.73333V3.2H10.1667V1.73333C10.1667 1.33 9.83667 1 9.43333 1C9.03 1 8.7 1.33 8.7 1.73333V3.2H7.6V1.73333C7.6 1.33 7.27 1 6.86667 1C6.46333 1 6.13333 1.33 6.13333 1.73333V3.26967C4.69233 3.55567 3.55567 4.69233 3.26967 6.13333H1.73333C1.33 6.13333 1 6.46333 1 6.86667C1 7.27 1.33 7.6 1.73333 7.6H3.2V8.7H1.73333C1.33 8.7 1 9.03 1 9.43333C1 9.83667 1.33 10.1667 1.73333 10.1667H3.2V11.2667H1.73333C1.33 11.2667 1 11.5967 1 12C1 12.4033 1.33 12.7333 1.73333 12.7333H3.2V13.8333H1.73333C1.33 13.8333 1 14.1633 1 14.5667C1 14.97 1.33 15.3 1.73333 15.3H3.2V16.4H1.73333C1.33 16.4 1 16.73 1 17.1333C1 17.5367 1.33 17.8667 1.73333 17.8667H3.26967C3.55567 19.3077 4.69233 20.4443 6.13333 20.7303V22.2667C6.13333 22.67 6.46333 23 6.86667 23C7.27 23 7.6 22.67 7.6 22.2667V20.8H8.7V22.2667C8.7 22.67 9.03 23 9.43333 23C9.83667 23 10.1667 22.67 10.1667 22.2667V20.8H11.2667V22.2667C11.2667 22.67 11.5967 23 12 23C12.4033 23 12.7333 22.67 12.7333 22.2667V20.8H13.8333V22.2667C13.8333 22.67 14.1633 23 14.5667 23C14.97 23 15.3 22.67 15.3 22.2667V20.8H16.4V22.2667C16.4 22.67 16.73 23 17.1333 23C17.5367 23 17.8667 22.67 17.8667 22.2667V20.7303C19.3077 20.4443 20.4443 19.3077 20.7303 17.8667H22.2667C22.67 17.8667 23 17.5367 23 17.1333C23 16.73 22.67 16.4 22.2667 16.4H20.8V15.3H22.2667C22.67 15.3 23 14.97 23 14.5667C23 14.1633 22.67 13.8333 22.2667 13.8333H20.8V12.7333H22.2667C22.67 12.7333 23 12.4033 23 12C23 11.5967 22.67 11.2667 22.2667 11.2667H20.8V10.1667H22.2667C22.67 10.1667 23 9.83667 23 9.43333C23 9.03 22.67 8.7 22.2667 8.7H20.8V7.6H22.2667ZM19.3333 17.159C19.3333 18.358 18.358 19.3333 17.159 19.3333H6.841C5.642 19.3333 4.66667 18.358 4.66667 17.159V6.841C4.66667 5.642 5.642 4.66667 6.841 4.66667H17.1627C18.3617 4.66667 19.337 5.642 19.337 6.841V17.159H19.3333Z" fill="#007DC0"/>
<path d="M11.8716 9.46659C11.8202 9.31259 11.7139 9.23926 11.5562 9.23926H10.3242C10.1666 9.23926 10.0602 9.31626 10.0089 9.46659L8.17188 14.5229C8.16822 14.5376 8.16455 14.5633 8.16455 14.5926C8.16455 14.6329 8.18288 14.6733 8.21588 14.7063C8.24888 14.7393 8.28922 14.7576 8.32955 14.7576H9.35622C9.48088 14.7576 9.57255 14.6989 9.62388 14.5853L9.90622 13.8189H11.9742L12.2566 14.5853C12.3079 14.7026 12.3996 14.7576 12.5242 14.7576H13.5509C13.5912 14.7576 13.6316 14.7393 13.6646 14.7063C13.6976 14.6733 13.7159 14.6329 13.7159 14.5926C13.7159 14.5596 13.7122 14.5376 13.7086 14.5229L11.8716 9.46659ZM10.2362 12.6383L10.9366 10.6253L11.6369 12.6383H10.2362Z" fill="#007DC0"/>
<path d="M15.6413 9.23926H14.512C14.4606 9.23926 14.413 9.25759 14.3726 9.29426C14.3323 9.33093 14.314 9.37859 14.314 9.43726V14.5633C14.314 14.6146 14.3323 14.6623 14.3726 14.7026C14.413 14.7429 14.457 14.7613 14.512 14.7613H15.6413C15.7 14.7613 15.7476 14.7429 15.7843 14.7026C15.821 14.6623 15.8393 14.6183 15.8393 14.5633V9.43726C15.8393 9.37859 15.821 9.33093 15.7843 9.29426C15.744 9.25759 15.6963 9.23926 15.6413 9.23926Z" fill="#007DC0"/>
</svg>
