<svg width="60" height="60" viewBox="0 0 60 60" fill="none" xmlns="http://www.w3.org/2000/svg">
<path fill-rule="evenodd" clip-rule="evenodd" d="M36.5219 5.65616L31.479 0.613268C30.6613 -0.204423 29.3385 -0.204423 28.5208 0.613268L23.4779 5.65616L16.5875 3.80868C15.4712 3.51007 14.3242 4.17427 14.0256 5.29057L12.1781 12.1781L5.29057 14.0256C4.17427 14.3242 3.51007 15.4712 3.80868 16.5875L5.65616 23.4779L0.613268 28.5208C-0.204423 29.3385 -0.204423 30.6613 0.613268 31.479L5.65616 36.5219L3.80868 43.4123C3.51007 44.5286 4.17427 45.6756 5.29057 45.9742L12.1781 47.8216L14.0256 54.7092C14.3242 55.8255 15.4712 56.4897 16.5875 56.1911L23.4779 54.3436L28.5208 59.3865C29.3385 60.2042 30.6613 60.2042 31.479 59.3865L36.5219 54.3436L43.4123 56.1911C44.5286 56.4897 45.6756 55.8255 45.9742 54.7092L47.8216 47.8216L54.7092 45.9742C55.8255 45.6756 56.4897 44.5286 56.1911 43.4123L54.3436 36.5219L59.3865 31.479C60.2042 30.6613 60.2042 29.3385 59.3865 28.5208L54.3436 23.4779L56.1911 16.5875C56.4897 15.4712 55.8255 14.3242 54.7092 14.0256L47.8216 12.1781L45.9742 5.29057C45.6756 4.17427 44.5286 3.51007 43.4123 3.80868L36.5219 5.65616ZM17.3578 31.479L24.7979 38.9219C25.6156 39.7396 26.9412 39.7396 27.7589 38.9219L42.642 24.0388C43.4597 23.2212 43.4597 21.8955 42.642 21.0779C41.8271 20.2602 40.4987 20.2602 39.6838 21.0779L26.2798 34.4818L20.316 28.5208C19.5011 27.7031 18.1727 27.7031 17.3578 28.5208C16.5401 29.3357 16.5401 30.6641 17.3578 31.479Z" fill="#22AE68"/>
</svg>
