<svg width="14" height="14" viewBox="0 0 14 14" fill="none" xmlns="http://www.w3.org/2000/svg">
<path d="M0.0839135 2.12751C0.158569 1.81678 0.545655 1.70655 0.772765 1.93368L2.28381 3.44555H3.44466V2.2847L1.93561 0.776445C1.70957 0.550401 1.81851 0.163725 2.12769 0.0880034C2.84126 -0.0867391 3.9991 -0.0606507 4.89428 0.834228C5.67748 1.61742 5.92906 2.78648 5.56098 3.82153L10.1787 8.43922C11.2137 8.07114 12.3828 8.32272 13.166 9.10592C14.0383 9.97829 14.0897 11.1481 13.9155 11.8736C13.8408 12.1843 13.4537 12.2945 13.2266 12.0674L11.7156 10.5555H10.5547V11.7164L12.0634 13.2242C12.2895 13.4503 12.1804 13.8371 11.8712 13.9127C11.1579 14.0871 10.0005 14.0619 9.10511 13.1668C8.32192 12.3836 8.07033 11.2146 8.43841 10.1795L3.82072 5.56185C2.78567 5.92993 1.61689 5.67834 0.833419 4.89515C-0.0389806 4.0228 -0.0903642 2.85298 0.0839135 2.12751Z" fill="#AFAFAF"/>
<path d="M6.99952 9.90159L3.50002 13.4008C2.79968 14.1012 1.71458 14.1884 0.918808 13.6617L4.08031 10.5005C4.24028 10.3402 4.24028 10.0804 4.08031 9.92019C3.92006 9.76021 3.66027 9.76021 3.50002 9.92019L0.338794 13.0817C-0.187895 12.2859 -0.100934 11.2008 0.599677 10.5005L4.0989 7.00098L6.99952 9.90159Z" fill="#AFAFAF"/>
<path d="M13.9568 1.17368L12.7965 3.49401C12.7363 3.61461 12.6209 3.69774 12.4875 3.71688L10.5927 3.98734L8.73968 5.84032L8.15967 5.2603L10.0124 3.4076L10.2831 1.5125C10.3022 1.37905 10.3854 1.26365 10.506 1.20349L12.8263 0.0431875C12.9841 -0.0355697 13.175 -0.00466844 13.2997 0.12003L13.88 0.700318C14.0047 0.825017 14.0356 1.01589 13.9568 1.17368Z" fill="#AFAFAF"/>
</svg>
