<svg width="12" height="12" viewBox="0 0 12 12" fill="none" xmlns="http://www.w3.org/2000/svg">
<path fill-rule="evenodd" clip-rule="evenodd" d="M5.99985 2.00006C3.94149 2.00006 2.24566 3.55538 2.02453 5.55467C1.99416 5.82914 1.74704 6.02705 1.47255 5.9967C1.19807 5.96635 1.00016 5.71923 1.03053 5.44472C1.30708 2.9444 3.42606 1 5.99985 1C7.02171 1 7.99517 1.43112 8.81957 1.9931C9.24624 2.28397 9.64377 2.61712 10.0005 2.96125V1.99948C10.0005 1.72332 10.2244 1.49945 10.5006 1.49945C10.7767 1.49945 11.0006 1.72332 11.0006 1.99948V4.24962C11.0006 4.52578 10.7767 4.74964 10.5006 4.74964H8.25043C7.97427 4.74964 7.7504 4.52578 7.7504 4.24962C7.7504 3.97346 7.97427 3.74958 8.25043 3.74958H9.37655C9.03828 3.41627 8.65976 3.09448 8.25628 2.81942C7.52214 2.31898 6.74529 2.00006 5.99985 2.00006ZM10.5272 6.00525C10.8016 6.0357 10.9994 6.28292 10.9689 6.55738C10.6914 9.05668 8.57295 11 5.99985 11C4.97861 11 4.00536 10.569 3.18104 10.007C2.75438 9.71617 2.35686 9.383 2.00006 9.03873V9.99994C2.00006 10.2761 1.77619 10.5 1.50003 10.5C1.22387 10.5 1 10.2761 1 9.99994V7.7498C1 7.47369 1.22387 7.24977 1.50003 7.24977H3.75016C4.02632 7.24977 4.25019 7.47369 4.25019 7.7498C4.25019 8.02597 4.02632 8.24983 3.75016 8.24983H2.62351C2.96194 8.5835 3.34067 8.90552 3.74436 9.18074C4.47842 9.68117 5.25505 9.99994 5.99985 9.99994C8.05762 9.99994 9.75307 8.4455 9.97499 6.44703C10.0055 6.17256 10.2527 5.97475 10.5272 6.00525Z" fill="#FFAC47" stroke="#FFAC47" stroke-width="0.5"/>
</svg>
