<svg width="24" height="24" viewBox="0 0 24 24" fill="none" xmlns="http://www.w3.org/2000/svg">
<path d="M14.3412 22.9992C13.928 22.9986 13.5318 22.8257 13.2396 22.5184C12.9474 22.2111 12.7831 21.7945 12.7826 21.3599V17.174C12.7826 17.1445 12.7768 17.1154 12.7656 17.0883C12.7544 17.0613 12.7381 17.037 12.7176 17.0168L11.5313 15.8556L10.7942 17.502C10.7684 17.5596 10.7372 17.6143 10.7011 17.6653L7.9322 21.5611C7.81728 21.7538 7.66575 21.9195 7.48711 22.0477C7.30847 22.1759 7.10657 22.264 6.89406 22.3063C6.58857 22.3687 6.27238 22.3354 5.98466 22.2107C5.69693 22.086 5.4503 21.8753 5.27532 21.6047C5.10033 21.334 5.00466 21.0154 5.00017 20.6881C4.99567 20.3609 5.08254 20.0394 5.25002 19.7636L7.80571 15.9262C7.81879 15.9066 7.82858 15.8848 7.83464 15.8617L9.5107 9.63264C9.5205 9.59748 9.52143 9.56023 9.5134 9.52457C9.50537 9.48891 9.48866 9.45607 9.46491 9.42926C9.45347 9.41631 9.44068 9.40478 9.42677 9.39488L8.21719 12.2473C8.14558 12.4216 8.04197 12.5794 7.91229 12.7115C7.78261 12.8436 7.62941 12.9476 7.46147 13.0173C7.29353 13.0871 7.11415 13.1213 6.93361 13.1181C6.75307 13.1148 6.57492 13.0741 6.40936 12.9983C6.2438 12.9225 6.09409 12.8131 5.9688 12.6764C5.84352 12.5396 5.74513 12.3782 5.67926 12.2014C5.61339 12.0246 5.58134 11.8359 5.58495 11.646C5.58856 11.4561 5.62776 11.2689 5.7003 11.095L7.29923 7.351C7.4301 7.08106 7.63501 6.85865 7.88742 6.71255C7.90176 6.70457 7.91655 6.69752 7.9317 6.69143L11.238 5.38124C11.4591 5.29283 11.7044 5.29991 11.9205 5.40093L13.967 6.35448C14.1519 6.4408 14.3038 6.58983 14.3986 6.77772L14.9786 7.93C14.9981 7.96827 15.0281 7.99956 15.0646 8.01988L18.2316 9.77229C18.3982 9.86365 18.546 9.98865 18.6666 10.1401C18.7872 10.2916 18.8782 10.4666 18.9345 10.6551C18.9907 10.8436 19.011 11.042 18.9943 11.2387C18.9776 11.4355 18.9242 11.6269 18.8371 11.802C18.75 11.977 18.6309 12.1323 18.4867 12.2589C18.3425 12.3855 18.176 12.481 17.9967 12.5399C17.8174 12.5988 17.6287 12.6199 17.4416 12.6021C17.2545 12.5843 17.0726 12.5278 16.9063 12.436C16.9046 12.4349 14.9478 11.3396 13.9303 10.7677C13.9035 10.7528 13.8739 10.7443 13.8437 10.7429C13.8134 10.7414 13.7832 10.7471 13.7553 10.7595C13.7274 10.7719 13.7024 10.7906 13.6823 10.8144C13.6621 10.8382 13.6473 10.8664 13.6388 10.897L13.2464 12.3064C13.2377 12.3379 13.2359 12.3711 13.2413 12.4034C13.2467 12.4358 13.259 12.4664 13.2774 12.4929L15.6957 15.9763C15.8288 16.1673 15.9003 16.398 15.9 16.6348V21.3599C15.8995 21.7945 15.7351 22.2112 15.4429 22.5185C15.1507 22.8258 14.7545 22.9987 14.3412 22.9992ZM11.4193 14.8784C11.5074 14.8783 11.5923 14.9134 11.6568 14.9765L13.1928 16.4801C13.2832 16.5689 13.3554 16.6764 13.4048 16.7957C13.4542 16.9151 13.4798 17.0438 13.48 17.174V21.3599C13.48 21.4788 13.5022 21.5966 13.5455 21.7065C13.5888 21.8164 13.6523 21.9163 13.7322 22.0004C13.8122 22.0845 13.9072 22.1513 14.0117 22.1968C14.1162 22.2423 14.2282 22.2657 14.3413 22.2657C14.4544 22.2657 14.5664 22.2423 14.6709 22.1968C14.7754 22.1513 14.8704 22.0845 14.9504 22.0004C15.0304 21.9163 15.0938 21.8164 15.1371 21.7065C15.1804 21.5966 15.2027 21.4788 15.2027 21.3599V16.6348C15.2027 16.5534 15.1781 16.4741 15.1323 16.4085L12.7142 12.9255C12.6331 12.808 12.5787 12.6725 12.5549 12.5295C12.5312 12.3864 12.5389 12.2396 12.5773 12.1001L12.9697 10.6907C13.0073 10.5555 13.0731 10.4308 13.1623 10.3257C13.2515 10.2206 13.3619 10.1378 13.4854 10.0832C13.6089 10.0286 13.7425 10.0037 13.8763 10.0102C14.0101 10.0168 14.1408 10.0546 14.259 10.1211C15.276 10.6929 17.2321 11.7875 17.2321 11.7875C17.3208 11.8361 17.418 11.8651 17.5178 11.8727C17.6175 11.8803 17.7177 11.8662 17.8121 11.8315C17.9065 11.7968 17.9931 11.7421 18.0666 11.6708C18.1401 11.5995 18.1989 11.5131 18.2395 11.4169C18.3146 11.2379 18.3222 11.0356 18.2608 10.8509C18.1994 10.6662 18.0735 10.513 17.9087 10.4222L17.9073 10.4215L14.7392 8.66834C14.5787 8.57964 14.4473 8.44197 14.3625 8.27339L13.7823 7.12076C13.761 7.07826 13.7267 7.04457 13.6849 7.02515L11.6384 6.07161C11.5896 6.04892 11.5342 6.04738 11.4843 6.06731L8.20255 7.36747C8.08496 7.43993 7.98905 7.54563 7.92573 7.67254L6.33769 11.3926C6.30253 11.4783 6.28377 11.5704 6.28249 11.6637C6.28121 11.757 6.29744 11.8497 6.33024 11.9364C6.36304 12.0231 6.41178 12.1022 6.47365 12.1691C6.53553 12.236 6.60934 12.2894 6.69087 12.3263C6.77239 12.3631 6.86002 12.3827 6.94876 12.384C7.03749 12.3852 7.12559 12.368 7.208 12.3334C7.29042 12.2988 7.36554 12.2475 7.42907 12.1823C7.49261 12.1171 7.5433 12.0395 7.57826 11.9537L8.8922 8.85384C8.91516 8.79977 8.95023 8.75234 8.9944 8.71562C9.03857 8.67889 9.09054 8.65395 9.14587 8.64293C9.29683 8.61277 9.45262 8.62368 9.59845 8.67463C9.74428 8.72558 9.87531 8.81488 9.97909 8.93405C10.0829 9.05322 10.156 9.19831 10.1915 9.35555C10.2269 9.51279 10.2236 9.67695 10.1818 9.83245L8.50575 16.0615C8.47836 16.1634 8.43485 16.2598 8.37705 16.3465L5.82934 20.1715C5.7127 20.3714 5.67128 20.6099 5.7132 20.8403C5.75511 21.0707 5.87735 21.2763 6.05594 21.4168C6.15576 21.4953 6.27008 21.5509 6.39154 21.5801C6.51301 21.6093 6.63894 21.6115 6.76126 21.5865C6.88358 21.5615 6.99958 21.5099 7.10181 21.435C7.20405 21.3601 7.29025 21.2635 7.3549 21.1515L10.1421 17.227C10.1503 17.2155 10.1573 17.2032 10.1631 17.1901L11.1038 15.089C11.1272 15.0367 11.1619 14.991 11.2053 14.9556C11.2486 14.9202 11.2993 14.8961 11.3532 14.8852C11.375 14.8806 11.3971 14.8784 11.4193 14.8784ZM14.8794 5.49902C14.46 5.49902 13.9146 5.3285 13.5659 5.08346C13.2172 4.83842 12.9454 4.49013 12.7849 4.08264C12.6244 3.67515 12.5824 3.22675 12.6642 2.79416C12.746 2.36157 12.948 1.96421 13.2445 1.65233C13.5411 1.34045 13.919 1.12806 14.3303 1.04201C14.7417 0.955961 15.3035 1.03985 15.6909 1.20864C16.0784 1.37743 16.4096 1.66326 16.6426 2.02999C16.8756 2.39673 17 2.82789 17 3.26895C16.9993 3.8602 16.7757 4.42703 16.3782 4.8451C15.9806 5.26317 15.4417 5.49834 14.8794 5.49902ZM14.8794 1.7722C14.5979 1.7722 14.1873 1.82025 13.9533 1.98472C13.7192 2.14918 13.5368 2.38294 13.4291 2.65643C13.3214 2.92992 13.2932 3.23087 13.3481 3.5212C13.403 3.81154 13.5386 4.07823 13.7376 4.28756C13.9367 4.49688 14.1903 4.63943 14.4663 4.69718C14.7424 4.75493 15.164 4.76502 15.4241 4.65174C15.6841 4.53845 15.9064 4.34661 16.0628 4.10047C16.2192 3.85434 16.3027 3.56496 16.3027 3.26893C16.3023 2.87211 16.1522 2.49166 15.8854 2.21106C15.6185 1.93046 15.2568 1.77263 14.8794 1.7722Z" fill="#808080" stroke="#808080" stroke-width="0.5"/>
</svg>
