<svg width="32" height="30" viewBox="0 0 32 30" fill="none" xmlns="http://www.w3.org/2000/svg">
<g id="Group">
<g id="Group_2">
<g id="Group_3">
<path id="Vector" d="M12.0618 12.2213C13.2759 12.2213 14.2602 11.2371 14.2602 10.0229C14.2602 8.80869 13.2759 7.8244 12.0618 7.8244C10.8476 7.8244 9.86328 8.80869 9.86328 10.0229C9.86328 11.2371 10.8476 12.2213 12.0618 12.2213Z" fill="#E42727"/>
<path id="Vector_2" d="M30.1069 18.1145C29.0687 17.1374 27.7557 16.4962 26.3206 16.3129V5.13737C26.3206 3.94654 25.8321 2.87783 25.0687 2.08394C24.2748 1.29005 23.2061 0.832031 22.0153 0.832031H4.30534C3.1145 0.832031 2.0458 1.32058 1.25191 2.08394C0.458015 2.87783 0 3.94654 0 5.13737V19.2137V20.5267V23.3664C0 24.5572 0.48855 25.6259 1.25191 26.4198C2.0458 27.2137 3.1145 27.6717 4.30534 27.6717H21.4351C22.5649 28.5878 23.9695 29.1679 25.5267 29.1679C27.3282 29.1679 28.9466 28.4351 30.1069 27.2748C31.2672 26.1145 32 24.4962 32 22.6946C32 20.8931 31.2672 19.2748 30.1069 18.1145ZM1.61832 5.13737C1.61832 4.40455 1.92366 3.73279 2.41221 3.27478C2.90076 2.78623 3.57252 2.48089 4.30534 2.48089H22.0153C22.7481 2.48089 23.4198 2.78623 23.9084 3.27478C24.3969 3.76333 24.7023 4.43508 24.7023 5.16791V14.6946L20.1832 10.1755C19.8779 9.8702 19.3588 9.83966 19.0229 10.1755L12.2137 17.0152L7.60305 12.374C7.29771 12.0687 6.77863 12.0381 6.44275 12.374L1.61832 17.2595V5.13737ZM4.27481 26.1145V26.0534C3.54198 26.0534 2.87023 25.7481 2.38168 25.2595C1.92366 24.771 1.61832 24.0992 1.61832 23.3664V20.5267V19.5801L7.0229 14.145L11.6336 18.7557C11.9389 19.061 12.458 19.061 12.7939 18.7557L19.6031 11.916L24.0611 16.4046C23.9695 16.4351 23.8779 16.4656 23.7863 16.4962C23.6641 16.5267 23.542 16.5572 23.3893 16.6183C23.2672 16.6488 23.145 16.7099 23.0229 16.7404C22.9313 16.771 22.8702 16.8015 22.7786 16.8626C22.6565 16.9236 22.5649 16.9542 22.4733 17.0152C22.3206 17.1068 22.1679 17.1984 22.0153 17.29C21.9237 17.3511 21.8626 17.3816 21.771 17.4427C21.7099 17.4733 21.6794 17.5038 21.6183 17.5343C21.3435 17.7175 21.0992 17.9313 20.8855 18.1755C19.7252 19.3358 18.9924 20.9542 18.9924 22.7557C18.9924 23.2137 19.0534 23.6412 19.145 24.0992C19.1756 24.2213 19.2061 24.3129 19.2366 24.4351C19.3282 24.7404 19.4198 25.0458 19.542 25.3511V25.3816C19.6641 25.6259 19.7863 25.9007 19.9389 26.1145H4.27481ZM28.916 26.1145C28.0305 27 26.8397 27.5191 25.4962 27.5191C24.2137 27.5191 23.0229 27 22.1679 26.1755C22.0458 26.0534 21.9237 25.9007 21.8015 25.7786C21.7099 25.687 21.6183 25.5649 21.5267 25.4733C21.4046 25.3206 21.313 25.1374 21.2214 24.9542C21.1603 24.832 21.0992 24.7404 21.0382 24.6183C20.9771 24.4656 20.916 24.2824 20.8855 24.0992C20.855 23.9771 20.7939 23.8244 20.7634 23.7023C20.7023 23.3969 20.6718 23.061 20.6718 22.7252C20.6718 21.3816 21.2214 20.1908 22.0763 19.3053C22.9313 18.4198 24.1527 17.9007 25.4962 17.9007C26.8397 17.9007 28.0305 18.4504 28.916 19.3053C29.8015 20.1908 30.3206 21.3816 30.3206 22.7252C30.3206 24.0381 29.771 25.229 28.916 26.1145Z" fill="#E42727"/>
<path id="Vector_3" d="M26.0754 19.4274C26.0143 19.3664 25.9227 19.3053 25.8006 19.2442C25.709 19.2137 25.6174 19.1832 25.5258 19.1832C25.4953 19.1832 25.4953 19.1832 25.4953 19.1832C25.4647 19.1832 25.4647 19.1832 25.4647 19.1832C25.3731 19.1832 25.2815 19.2137 25.1899 19.2442C25.0983 19.2748 25.0067 19.3358 24.9151 19.4274L23.022 21.3206C22.7166 21.6259 22.7166 22.145 23.022 22.4809C23.3273 22.7862 23.8464 22.7862 24.1823 22.4809L24.6708 21.9923V25.3511C24.6708 25.8091 25.0372 26.1755 25.4953 26.1755C25.9533 26.1755 26.3197 25.8091 26.3197 25.3511V21.9923L26.8082 22.4809C27.1136 22.7862 27.6327 22.7862 27.9685 22.4809C28.2739 22.1755 28.2739 21.6564 27.9685 21.3206L26.0754 19.4274Z" fill="#E42727"/>
</g>
</g>
</g>
</svg>
