<svg width="32" height="29" viewBox="0 0 32 29" fill="none" xmlns="http://www.w3.org/2000/svg">
<path d="M12.0613 11.3891C13.2754 11.3891 14.2597 10.4048 14.2597 9.19066C14.2597 7.97648 13.2754 6.99219 12.0613 6.99219C10.8471 6.99219 9.86279 7.97648 9.86279 9.19066C9.86279 10.4048 10.8471 11.3891 12.0613 11.3891Z" fill="#AFAFAF"/>
<path d="M30.1069 17.2824C29.0687 16.3053 27.7557 15.6641 26.3206 15.4809V4.30534C26.3206 3.1145 25.8321 2.0458 25.0687 1.25191C24.2748 0.458015 23.2061 0 22.0153 0H4.30534C3.1145 0 2.0458 0.48855 1.25191 1.25191C0.458015 2.0458 0 3.1145 0 4.30534V18.3817V19.6947V22.5344C0 23.7252 0.48855 24.7939 1.25191 25.5878C2.0458 26.3817 3.1145 26.8397 4.30534 26.8397H21.4351C22.5649 27.7557 23.9695 28.3359 25.5267 28.3359C27.3282 28.3359 28.9466 27.6031 30.1069 26.4427C31.2672 25.2824 32 23.6641 32 21.8626C32 20.0611 31.2672 18.4427 30.1069 17.2824ZM1.61832 4.30534C1.61832 3.57252 1.92366 2.90076 2.41221 2.44275C2.90076 1.9542 3.57252 1.64885 4.30534 1.64885H22.0153C22.7481 1.64885 23.4198 1.9542 23.9084 2.44275C24.3969 2.9313 24.7023 3.60305 24.7023 4.33588V13.8626L20.1832 9.34351C19.8779 9.03817 19.3588 9.00763 19.0229 9.34351L12.2137 16.1832L7.60305 11.542C7.29771 11.2366 6.77863 11.2061 6.44275 11.542L1.61832 16.4275V4.30534ZM4.27481 25.2824V25.2214C3.54198 25.2214 2.87023 24.916 2.38168 24.4275C1.92366 23.9389 1.61832 23.2672 1.61832 22.5344V19.6947V18.7481L7.0229 13.313L11.6336 17.9237C11.9389 18.229 12.458 18.229 12.7939 17.9237L19.6031 11.084L24.0611 15.5725C23.9695 15.6031 23.8779 15.6336 23.7863 15.6641C23.6641 15.6947 23.542 15.7252 23.3893 15.7863C23.2672 15.8168 23.145 15.8779 23.0229 15.9084C22.9313 15.9389 22.8702 15.9695 22.7786 16.0305C22.6565 16.0916 22.5649 16.1221 22.4733 16.1832C22.3206 16.2748 22.1679 16.3664 22.0153 16.458C21.9237 16.5191 21.8626 16.5496 21.771 16.6107C21.7099 16.6412 21.6794 16.6718 21.6183 16.7023C21.3435 16.8855 21.0992 17.0992 20.8855 17.3435C19.7252 18.5038 18.9924 20.1221 18.9924 21.9237C18.9924 22.3817 19.0534 22.8092 19.145 23.2672C19.1756 23.3893 19.2061 23.4809 19.2366 23.6031C19.3282 23.9084 19.4198 24.2137 19.542 24.5191V24.5496C19.6641 24.7939 19.7863 25.0687 19.9389 25.2824H4.27481ZM28.916 25.2824C28.0305 26.1679 26.8397 26.687 25.4962 26.687C24.2137 26.687 23.0229 26.1679 22.1679 25.3435C22.0458 25.2214 21.9237 25.0687 21.8015 24.9466C21.7099 24.855 21.6183 24.7328 21.5267 24.6412C21.4046 24.4885 21.313 24.3053 21.2214 24.1221C21.1603 24 21.0992 23.9084 21.0382 23.7863C20.9771 23.6336 20.916 23.4504 20.8855 23.2672C20.855 23.145 20.7939 22.9924 20.7634 22.8702C20.7023 22.5649 20.6718 22.229 20.6718 21.8931C20.6718 20.5496 21.2214 19.3588 22.0763 18.4733C22.9313 17.5878 24.1527 17.0687 25.4962 17.0687C26.8397 17.0687 28.0305 17.6183 28.916 18.4733C29.8015 19.3588 30.3206 20.5496 30.3206 21.8931C30.3206 23.2061 29.771 24.3969 28.916 25.2824Z" fill="#AFAFAF"/>
<path d="M26.0764 18.5958C26.0153 18.5348 25.9237 18.4737 25.8016 18.4126C25.71 18.3821 25.6184 18.3516 25.5268 18.3516C25.4962 18.3516 25.4962 18.3516 25.4962 18.3516C25.4657 18.3516 25.4657 18.3516 25.4657 18.3516C25.3741 18.3516 25.2825 18.3821 25.1909 18.4126C25.0993 18.4432 25.0077 18.5042 24.9161 18.5958L23.023 20.489C22.7176 20.7943 22.7176 21.3134 23.023 21.6493C23.3283 21.9546 23.8474 21.9546 24.1833 21.6493L24.6718 21.1607V24.5195C24.6718 24.9775 25.0382 25.3439 25.4962 25.3439C25.9543 25.3439 26.3207 24.9775 26.3207 24.5195V21.1607L26.8092 21.6493C27.1146 21.9546 27.6336 21.9546 27.9695 21.6493C28.2749 21.3439 28.2749 20.8248 27.9695 20.489L26.0764 18.5958Z" fill="#AFAFAF"/>
</svg>
