<svg width="20" height="18" viewBox="0 0 20 18" fill="none" xmlns="http://www.w3.org/2000/svg">
<path fill-rule="evenodd" clip-rule="evenodd" d="M5.96682 7.60575C7.80555 7.60575 9.30178 6.10986 9.30178 4.27113C9.30178 2.43241 7.80555 0.936523 5.96682 0.936523C4.12809 0.936523 2.63256 2.43241 2.63256 4.27113C2.63256 6.10986 4.12809 7.60575 5.96682 7.60575ZM5.96682 2.36509C7.01802 2.36509 7.87321 3.22028 7.87321 4.27113C7.87321 5.32199 7.01802 6.17717 5.96682 6.17717C4.91632 6.17717 4.06113 5.32199 4.06113 4.27113C4.06113 3.22028 4.91632 2.36509 5.96682 2.36509ZM17.3675 4.27113C17.3675 6.10986 15.872 7.60575 14.0332 7.60575C12.1945 7.60575 10.6983 6.10986 10.6983 4.27113C10.6983 2.43241 12.1945 0.936523 14.0332 0.936523C15.872 0.936523 17.3675 2.43241 17.3675 4.27113ZM14.0332 6.17717C15.0838 6.17717 15.9389 5.32199 15.9389 4.27113C15.9389 3.22028 15.0838 2.36509 14.0332 2.36509C12.982 2.36509 12.1269 3.22028 12.1269 4.27113C12.1269 5.32199 12.982 6.17717 14.0332 6.17717ZM12.124 8.997C12.7204 8.7846 13.3635 8.67683 14.0359 8.67683C15.6312 8.67683 17.1296 9.2966 18.2547 10.4217C19.3798 11.5472 20 13.0456 20 14.6412C20 15.2885 19.7481 15.8964 19.2906 16.3537C18.8337 16.8105 18.2282 17.0627 17.5858 17.0627H13.743C13.3482 17.0627 13.0287 16.7429 13.0287 16.3484C13.0287 16.0042 13.277 15.7304 13.6013 15.6627C13.6166 15.6596 13.6316 15.6554 13.6466 15.6513L13.6466 15.6513C13.6778 15.6427 13.709 15.6341 13.743 15.6341H17.5858C17.8466 15.6341 18.0929 15.5309 18.2805 15.3436C18.4681 15.1556 18.5714 14.9066 18.5714 14.6412C18.5714 13.4271 18.0998 12.2873 17.2447 11.4318C16.3895 10.5766 15.2497 10.1054 14.0359 10.1054C13.5274 10.1054 13.0454 10.1853 12.6039 10.3426C12.5847 10.3494 12.5654 10.3507 12.5461 10.352C12.5327 10.353 12.5194 10.3539 12.506 10.3566C12.162 10.4265 11.8118 10.2485 11.6908 9.90939C11.559 9.53795 11.7529 9.12919 12.124 8.997ZM9.51799 17.0603H2.41629C1.08398 17.0603 0 15.9763 0 14.644C0 11.3537 2.67648 8.67683 5.96679 8.67683C9.25711 8.67683 11.9343 11.3537 11.9343 14.644C11.9343 15.9763 10.8503 17.0603 9.51799 17.0603ZM10.5057 14.644C10.5057 12.1415 8.46958 10.1054 5.96679 10.1054C3.4647 10.1054 1.42857 12.1415 1.42857 14.644C1.42857 15.1888 1.87151 15.6317 2.41629 15.6317H9.51799C10.0628 15.6317 10.5057 15.1888 10.5057 14.644Z" fill="#007DC0"/>
</svg>
