<svg width="24" height="19" viewBox="0 0 24 19" fill="none" xmlns="http://www.w3.org/2000/svg">
<path d="M2.21419 18.9999H3.55855C4.80103 18.9999 5.84008 17.9959 5.84008 16.7297V15.8197H18.1599V16.7297C18.1599 17.9959 19.1993 18.9999 20.4414 18.9999H21.7858C22.3767 19.0044 22.9442 18.7661 23.3608 18.339C23.7773 17.9118 24.0076 17.3318 23.9998 16.7297V9.24293C24.0057 8.39531 23.672 7.58177 23.0758 6.99057L22.5898 6.45034L20.7814 1.48089C20.452 0.586131 19.6111 -0.00474923 18.6739 2.8779e-05H5.64883C4.71041 -0.00474923 3.86792 0.585813 3.53636 1.48057L1.74764 6.39173L1.04921 7.06798C0.375783 7.66045 -0.00764926 8.52463 0.000163101 9.43118V16.7297C-0.00702431 17.3318 0.223597 17.9112 0.640154 18.3383C1.0564 18.7652 1.62358 19.0038 2.21419 18.9999ZM4.5601 16.7297C4.55541 16.9906 4.4476 17.2388 4.26104 17.4178C4.07198 17.6013 3.81948 17.701 3.55855 17.6952H2.21451C1.96326 17.699 1.72139 17.5984 1.54483 17.4159C1.36827 17.2337 1.27264 16.9855 1.28014 16.7297V15.5945C1.56764 15.7493 1.8892 15.827 2.21451 15.8197H4.5601V16.7297ZM22.4542 17.4178C22.2786 17.6003 22.0364 17.7006 21.7858 17.6952H20.4417C19.9049 17.6952 19.4399 17.2767 19.4399 16.7297V15.8197H21.7858C22.1283 15.8197 22.4798 15.7426 22.7198 15.5961V16.7294C22.728 16.9865 22.6317 17.2353 22.4542 17.4181V17.4178ZM4.73634 1.94086C4.87978 1.55511 5.24352 1.30156 5.6482 1.30474H18.6736C19.0783 1.30156 19.4424 1.55511 19.5858 1.94086L21.108 6.11588H3.2148L4.73634 1.94086ZM1.28014 9.43118C1.27233 8.90114 1.49545 8.39467 1.8892 8.04811C1.89638 8.04174 1.89389 8.04174 1.90107 8.03505L2.54669 7.42059H21.7248L22.173 7.90254C22.1817 7.91209 22.1717 7.91878 22.1814 7.9277C22.5314 8.27172 22.7261 8.74761 22.7198 9.24293V13.5237C22.728 13.7843 22.632 14.0372 22.4542 14.2248C22.2798 14.4108 22.0383 14.5156 21.7858 14.515H2.21451C1.67795 14.515 1.28014 14.0703 1.28014 13.5237V9.43118Z" fill="#007DC0"/>
<path d="M8 9.65306C8 9.29241 7.72015 9 7.375 9H3.625C3.27985 9 3 9.29241 3 9.65306V12.3469C3 12.7076 3.27985 13 3.625 13H7.375C7.72015 13 8 12.7076 8 12.3469V9.65306ZM4.25 10.3061H6.75V11.6939H4.25V10.3061Z" fill="#007DC0"/>
<path d="M22 9.65306C22 9.29241 21.7202 9 21.375 9H17.625C17.2798 9 17 9.29241 17 9.65306V12.3469C17 12.7076 17.2798 13 17.625 13H21.375C21.7202 13 22 12.7076 22 12.3469V9.65306ZM18.25 10.3061H20.75V11.6939H18.25V10.3061Z" fill="#007DC0"/>
<path d="M15 10.6857C15 10.307 14.7209 10 14.3766 10H9.62338C9.27912 10 9 10.307 9 10.6857V12.3143C9 12.693 9.27912 13 9.62338 13H14.3766C14.7209 13 15 12.693 15 12.3143V10.6857ZM10.2468 11.3714H13.8312V11.6286H10.2468V11.3714Z" fill="#007DC0"/>
</svg>
