<svg width="24" height="24" viewBox="0 0 24 24" fill="none" xmlns="http://www.w3.org/2000/svg">
<path d="M10.293 19.8408C8.65628 22.1153 5.46125 22.6867 3.15185 21.1044C0.853672 19.5221 0.31556 16.3685 1.92989 14.072C2.8413 12.7885 4.21282 12.0615 5.64193 11.918C5.80763 11.9013 5.94814 12.0319 5.95408 12.1984L5.98908 13.1795C5.99482 13.3405 5.87211 13.4759 5.713 13.5009C4.79691 13.645 3.93262 14.1457 3.35365 14.9621C2.23258 16.5443 2.58011 18.676 4.11597 19.7419C5.66304 20.7967 7.82669 20.3902 8.94776 18.8189C9.29529 18.3244 9.49708 17.786 9.57556 17.2366V16.4247C9.57556 16.2598 9.70859 16.1259 9.87345 16.1247L15.8311 16.0828L15.9096 15.962C16.5037 14.9511 17.793 14.5995 18.8019 15.1708C19.8109 15.7422 20.1584 17.0168 19.5642 18.0277C18.9701 19.0277 17.6696 19.3793 16.6607 18.8079C16.201 18.5552 15.8759 18.1486 15.7302 17.6871L11.1675 17.7091C11.0441 18.4453 10.7527 19.1595 10.293 19.8408ZM18.4544 11.9953C21.2907 12.3359 23.3086 14.8302 22.9611 17.5662C22.6135 20.3133 20.0351 22.2582 17.1988 21.9175C15.6419 21.7332 14.3382 20.9093 13.5238 19.7483C13.4264 19.6095 13.4757 19.4196 13.6231 19.3358L14.4977 18.838C14.6358 18.7594 14.8102 18.803 14.9075 18.9286C15.4685 19.653 16.3282 20.1618 17.3445 20.2913C19.3064 20.522 21.044 19.2145 21.2795 17.3794C21.5149 15.5444 20.1248 13.8633 18.1853 13.6325C17.58 13.5666 16.997 13.6435 16.4701 13.8303L15.7756 14.1827C15.6315 14.2558 15.4553 14.2016 15.3772 14.0601L12.6249 9.07244H12.3782C11.1899 9.02849 10.2706 8.07253 10.3042 6.92977C10.3379 5.787 11.3468 4.89697 12.524 4.94092C13.7011 5.00685 14.6316 5.94084 14.5979 7.0836C14.5755 7.56707 14.3849 8.0066 14.0822 8.34723L16.2123 12.204C16.9073 11.9843 17.6696 11.9074 18.4544 11.9953ZM7.81548 9.00651C6.69442 6.42431 7.88275 3.46852 10.4724 2.39168C13.0733 1.31485 16.0777 2.53453 17.1988 5.11673C17.8166 6.52287 17.74 8.05363 17.115 9.32396C17.0419 9.47259 16.8579 9.52248 16.714 9.44055L15.8373 8.94163C15.6964 8.86145 15.646 8.68432 15.7095 8.53518C16.0655 7.69868 16.0906 6.72142 15.6854 5.79799C14.923 4.0399 12.8939 3.19381 11.1563 3.90804C9.40739 4.63325 8.62265 6.65506 9.38497 8.41316C9.69887 9.13837 10.2258 9.69876 10.8648 10.0724L11.016 10.1522C11.1704 10.2336 11.2229 10.4292 11.1301 10.577L7.86033 15.7862C7.89396 15.8411 7.9388 15.907 7.97243 15.9949C8.52175 16.9949 8.14059 18.2585 7.10921 18.7969C6.08904 19.3353 4.79982 18.9397 4.23929 17.9069C3.68997 16.885 4.07113 15.6213 5.10251 15.0829C5.53972 14.8522 6.02178 14.7972 6.48142 14.8961L9.07108 10.7536C8.54418 10.2811 8.09575 9.68778 7.81548 9.00651Z" fill="#808080"/>
</svg>
