<svg width="14" height="14" viewBox="0 0 14 14" fill="none" xmlns="http://www.w3.org/2000/svg">
<path d="M2.49995 1.00005C2.08574 0.585832 1.41417 0.585832 0.999955 1.00005C0.585741 1.41426 0.585741 2.08583 0.999955 2.50005L5.49995 7.00004L0.999997 11.5C0.585783 11.9142 0.585783 12.5858 0.999997 13C1.41421 13.4142 2.08578 13.4142 2.5 13L6.99995 8.50004L11.5 13C11.9142 13.4143 12.5857 13.4143 13 13C13.4142 12.5858 13.4142 11.9143 13 11.5L8.49995 7.00004L13 2.5C13.4142 2.08578 13.4142 1.41421 13 0.999996C12.5858 0.585783 11.9142 0.585783 11.5 0.999996L6.99995 5.50004L2.49995 1.00005Z" fill="#55595D"/>
</svg>
