<svg width="185" height="51" viewBox="0 0 185 51" fill="none" xmlns="http://www.w3.org/2000/svg">
<g clip-path="url(#clip0_277_4)">
<path d="M47.8091 19.9749L30.2742 2.44007C28.8745 1.04267 26.9774 0.257812 24.9995 0.257812C23.0216 0.257812 21.1246 1.04267 19.7248 2.44007L2.18995 19.9749C0.792543 21.3747 0.00769043 23.2717 0.00769043 25.2496C0.00769043 27.2275 0.792543 29.1246 2.18995 30.5243L19.7248 48.0592C21.1246 49.4566 23.0216 50.2415 24.9995 50.2415C26.9774 50.2415 28.8745 49.4566 30.2742 48.0592L47.8091 30.5243C49.2065 29.1246 49.9913 27.2275 49.9913 25.2496C49.9913 23.2717 49.2065 21.3747 47.8091 19.9749ZM24.9995 37.3116C22.6139 37.3113 20.282 36.6037 18.2986 35.2781C16.3152 33.9526 14.7694 32.0686 13.8567 29.8646C12.944 27.6605 12.7053 25.2353 13.1709 22.8956C13.6365 20.5559 14.7854 18.4068 16.4723 16.72C18.1593 15.0333 20.3085 13.8846 22.6483 13.4193C24.988 12.954 27.4132 13.193 29.6172 14.1059C31.8211 15.0189 33.7049 16.5649 35.0302 18.5485C36.3555 20.5321 37.0629 22.8641 37.0629 25.2496C37.0591 28.4478 35.7869 31.5138 33.5254 33.7751C31.2638 36.0364 28.1976 37.3082 24.9995 37.3116Z" fill="#323232"/>
<path d="M25.0016 18.2539C23.6178 18.2539 22.265 18.6643 21.1144 19.4331C19.9637 20.2019 19.0669 21.2947 18.5374 22.5732C18.0078 23.8517 17.8692 25.2585 18.1392 26.6158C18.4092 27.973 19.0756 29.2197 20.0541 30.1982C21.0326 31.1768 22.2793 31.8432 23.6366 32.1131C24.9938 32.3831 26.4007 32.2445 27.6792 31.715C28.9577 31.1854 30.0504 30.2886 30.8193 29.138C31.5881 27.9874 31.9984 26.6346 31.9984 25.2507C31.9965 23.3956 31.2588 21.6171 29.947 20.3053C28.6353 18.9936 26.8567 18.2558 25.0016 18.2539Z" fill="#323232"/>
</g>
<path d="M66.712 30.466H69.28C69.792 30.466 70.328 30.386 70.888 30.226C71.448 30.066 72 29.762 72.544 29.314C73.088 28.85 73.496 28.274 73.768 27.586C74.04 26.882 74.176 26.17 74.176 25.45C74.176 24.906 74.096 24.346 73.936 23.77C73.776 23.194 73.472 22.634 73.024 22.09C72.576 21.53 72.008 21.114 71.32 20.842C70.648 20.57 69.968 20.434 69.28 20.434H66.712C66.024 20.434 65.376 20.554 64.768 20.794C64.16 21.034 63.632 21.378 63.184 21.826C62.752 22.274 62.408 22.81 62.152 23.434C61.912 24.058 61.792 24.73 61.792 25.45C61.792 26.922 62.248 28.13 63.16 29.074C64.088 30.002 65.272 30.466 66.712 30.466ZM69.088 33.25H66.88C65.76 33.25 64.704 33.066 63.712 32.698C62.736 32.314 61.888 31.778 61.168 31.09C60.448 30.402 59.888 29.57 59.488 28.594C59.088 27.618 58.888 26.57 58.888 25.45C58.888 24.33 59.088 23.282 59.488 22.306C59.888 21.33 60.448 20.498 61.168 19.81C61.888 19.122 62.736 18.594 63.712 18.226C64.704 17.842 65.76 17.65 66.88 17.65H69.088C70.208 17.65 71.256 17.842 72.232 18.226C73.224 18.594 74.08 19.122 74.8 19.81C75.52 20.498 76.08 21.33 76.48 22.306C76.88 23.282 77.08 24.33 77.08 25.45C77.08 26.57 76.88 27.618 76.48 28.594C76.08 29.57 75.52 30.402 74.8 31.09C74.08 31.778 73.224 32.314 72.232 32.698C71.256 33.066 70.208 33.25 69.088 33.25ZM96.4493 33.25H92.6573L89.2013 28.858H83.6813V26.314H89.9693C90.8173 26.314 91.5053 26.042 92.0333 25.498C92.5613 24.954 92.8253 24.242 92.8253 23.362C92.8253 22.962 92.7373 22.53 92.5613 22.066C92.3853 21.602 92.0573 21.218 91.5773 20.914C91.1133 20.594 90.5773 20.434 89.9693 20.434H82.2173V33.25H79.3373V17.65H89.9693C90.7853 17.65 91.5453 17.786 92.2493 18.058C92.9693 18.33 93.5853 18.714 94.0973 19.21C94.6093 19.706 95.0093 20.306 95.2973 21.01C95.5853 21.698 95.7293 22.442 95.7293 23.242C95.7293 24.426 95.4253 25.474 94.8173 26.386C94.2253 27.298 93.4253 27.97 92.4173 28.402L96.4493 33.25ZM105.99 33.25H103.086V27.538L95.5737 17.65H99.0057L104.598 24.874L110.214 17.65H113.502L105.99 27.538V33.25ZM129.745 33.25H115.969C115.137 33.25 114.721 32.85 114.721 32.05V31.378C114.721 31.074 114.769 30.81 114.865 30.586C114.977 30.346 115.201 30.09 115.537 29.818L125.209 20.362H114.721V17.65H128.617C129.369 17.65 129.745 17.97 129.745 18.61V19.162C129.745 19.658 129.497 20.106 129.001 20.506L118.657 30.514H129.745V33.25ZM151.196 33.25H148.052L146.444 30.37H137.684L138.956 28.018H145.124L141.212 20.962L134.396 33.25H131.204L139.532 18.466C139.676 18.21 139.868 18.01 140.108 17.866C140.348 17.722 140.604 17.65 140.876 17.65H141.548C141.82 17.65 142.068 17.722 142.292 17.866C142.532 18.01 142.724 18.21 142.868 18.466L151.196 33.25ZM178.172 33.25H175.028L173.42 30.37H164.66L165.932 28.018H172.1L168.188 20.962L161.372 33.25H158.18L166.508 18.466C166.652 18.21 166.844 18.01 167.084 17.866C167.324 17.722 167.58 17.65 167.852 17.65H168.524C168.796 17.65 169.044 17.722 169.268 17.866C169.508 18.01 169.7 18.21 169.844 18.466L178.172 33.25ZM182.835 33.25H179.931V17.65H182.835V33.25Z" fill="#55595D"/>
<defs>
<clipPath id="clip0_277_4">
<rect width="50" height="50" fill="white" transform="translate(0 0.25)"/>
</clipPath>
</defs>
</svg>
